<svg xmlns="http://www.w3.org/2000/svg"><defs><radialGradient cx="17.997%" cy="25.996%" fx="17.997%" fy="25.996%" r="65.368%" id="digitalocean-a"><stop stop-color="#5FB0E2" offset="0%"/><stop stop-color="#45A1D7" offset="9.123%"/><stop stop-color="#2C93CD" offset="20.8%"/><stop stop-color="#1888C4" offset="33.83%"/><stop stop-color="#0B80BE" offset="48.76%"/><stop stop-color="#027BBB" offset="67.24%"/><stop stop-color="#007ABA" offset="100%"/></radialGradient><radialGradient id="php-a" cx=".837" cy="-125.811" r="363.057" gradientTransform="matrix(.463 0 0 .463 76.464 81.918)" gradientUnits="userSpaceOnUse"><stop offset="0" stop-color="#fff"/><stop offset=".5" stop-color="#4c6b97"/><stop offset="1" stop-color="#231f20"/></radialGradient><linearGradient x1="35.204%" y1="65.079%" x2="101.159%" y2="50%" id="rails-a"><stop stop-color="#FFF" offset="0%"/><stop stop-color="#C0815E" offset="100%"/></linearGradient><radialGradient fx="50%" fy="50%" r="50.521%" id="rails-b"><stop stop-color="#FFF" offset="0%"/><stop stop-color="#A94436" offset="100%"/></radialGradient><linearGradient x1="84.75%" y1="111.399%" x2="58.254%" y2="64.584%" id="ruby-a"><stop stop-color="#FB7655" offset="0%"/><stop stop-color="#FB7655" offset="0%"/><stop stop-color="#E42B1E" offset="41%"/><stop stop-color="#900" offset="99%"/><stop stop-color="#900" offset="100%"/></linearGradient><linearGradient x1="116.651%" y1="60.89%" x2="1.746%" y2="19.288%" id="ruby-b"><stop stop-color="#871101" offset="0%"/><stop stop-color="#871101" offset="0%"/><stop stop-color="#911209" offset="99%"/><stop stop-color="#911209" offset="100%"/></linearGradient><linearGradient x1="75.774%" y1="219.327%" x2="38.978%" y2="7.829%" id="ruby-c"><stop stop-color="#871101" offset="0%"/><stop stop-color="#871101" offset="0%"/><stop stop-color="#911209" offset="99%"/><stop stop-color="#911209" offset="100%"/></linearGradient><linearGradient x1="50.012%" y1="7.234%" x2="66.483%" y2="79.135%" id="ruby-d"><stop stop-color="#FFF" offset="0%"/><stop stop-color="#FFF" offset="0%"/><stop stop-color="#E57252" offset="23%"/><stop stop-color="#DE3B20" offset="46%"/><stop stop-color="#A60003" offset="99%"/><stop stop-color="#A60003" offset="100%"/></linearGradient><linearGradient x1="46.174%" y1="16.348%" x2="49.932%" y2="83.047%" id="ruby-e"><stop stop-color="#FFF" offset="0%"/><stop stop-color="#FFF" offset="0%"/><stop stop-color="#E4714E" offset="23%"/><stop stop-color="#BE1A0D" offset="56%"/><stop stop-color="#A80D00" offset="99%"/><stop stop-color="#A80D00" offset="100%"/></linearGradient><linearGradient x1="36.965%" y1="15.594%" x2="49.528%" y2="92.478%" id="ruby-f"><stop stop-color="#FFF" offset="0%"/><stop stop-color="#FFF" offset="0%"/><stop stop-color="#E46342" offset="18%"/><stop stop-color="#C82410" offset="40%"/><stop stop-color="#A80D00" offset="99%"/><stop stop-color="#A80D00" offset="100%"/></linearGradient><linearGradient x1="13.609%" y1="58.346%" x2="85.764%" y2="-46.717%" id="ruby-g"><stop stop-color="#FFF" offset="0%"/><stop stop-color="#FFF" offset="0%"/><stop stop-color="#C81F11" offset="54%"/><stop stop-color="#BF0905" offset="99%"/><stop stop-color="#BF0905" offset="100%"/></linearGradient><linearGradient x1="27.624%" y1="21.135%" x2="50.745%" y2="79.056%" id="ruby-h"><stop stop-color="#FFF" offset="0%"/><stop stop-color="#FFF" offset="0%"/><stop stop-color="#DE4024" offset="31%"/><stop stop-color="#BF190B" offset="99%"/><stop stop-color="#BF190B" offset="100%"/></linearGradient><linearGradient x1="-20.667%" y1="122.282%" x2="104.242%" y2="-6.342%" id="ruby-i"><stop stop-color="#BD0012" offset="0%"/><stop stop-color="#BD0012" offset="0%"/><stop stop-color="#FFF" offset="7%"/><stop stop-color="#FFF" offset="17%"/><stop stop-color="#C82F1C" offset="27%"/><stop stop-color="#820C01" offset="33%"/><stop stop-color="#A31601" offset="46%"/><stop stop-color="#B31301" offset="72%"/><stop stop-color="#E82609" offset="99%"/><stop stop-color="#E82609" offset="100%"/></linearGradient><linearGradient x1="58.792%" y1="65.205%" x2="11.964%" y2="50.128%" id="ruby-j"><stop stop-color="#8C0C01" offset="0%"/><stop stop-color="#8C0C01" offset="0%"/><stop stop-color="#990C00" offset="54%"/><stop stop-color="#A80D0E" offset="99%"/><stop stop-color="#A80D0E" offset="100%"/></linearGradient><linearGradient x1="79.319%" y1="62.754%" x2="23.088%" y2="17.888%" id="ruby-k"><stop stop-color="#7E110B" offset="0%"/><stop stop-color="#7E110B" offset="0%"/><stop stop-color="#9E0C00" offset="99%"/><stop stop-color="#9E0C00" offset="100%"/></linearGradient><linearGradient x1="92.88%" y1="74.122%" x2="59.841%" y2="39.704%" id="ruby-l"><stop stop-color="#79130D" offset="0%"/><stop stop-color="#79130D" offset="0%"/><stop stop-color="#9E120B" offset="99%"/><stop stop-color="#9E120B" offset="100%"/></linearGradient><radialGradient cx="32.001%" cy="40.21%" fx="32.001%" fy="40.21%" r="69.573%" id="ruby-m"><stop stop-color="#A80D00" offset="0%"/><stop stop-color="#A80D00" offset="0%"/><stop stop-color="#7E0E08" offset="99%"/><stop stop-color="#7E0E08" offset="100%"/></radialGradient><radialGradient cx="13.549%" cy="40.86%" fx="13.549%" fy="40.86%" r="88.386%" id="ruby-n"><stop stop-color="#A30C00" offset="0%"/><stop stop-color="#A30C00" offset="0%"/><stop stop-color="#800E08" offset="99%"/><stop stop-color="#800E08" offset="100%"/></radialGradient><linearGradient x1="56.57%" y1="101.717%" x2="3.105%" y2="11.993%" id="ruby-o"><stop stop-color="#8B2114" offset="0%"/><stop stop-color="#8B2114" offset="0%"/><stop stop-color="#9E100A" offset="43%"/><stop stop-color="#B3100C" offset="99%"/><stop stop-color="#B3100C" offset="100%"/></linearGradient><linearGradient x1="30.87%" y1="35.599%" x2="92.471%" y2="100.694%" id="ruby-p"><stop stop-color="#B31000" offset="0%"/><stop stop-color="#B31000" offset="0%"/><stop stop-color="#910F08" offset="44%"/><stop stop-color="#791C12" offset="99%"/><stop stop-color="#791C12" offset="100%"/></linearGradient></defs><symbol id="angular" viewBox="0 0 256 272" preserveAspectRatio="xMidYMid"><path d="M.1 45.522L125.908.697l129.196 44.028-20.919 166.45-108.277 59.966-106.583-59.169L.1 45.522z" fill="#E23237"/><path d="M255.104 44.725L125.908.697v270.444l108.277-59.866 20.919-166.55z" fill="#B52E31"/><path d="M126.107 32.274L47.714 206.693l29.285-.498 15.739-39.347h70.325l17.233 39.845 27.99.498-82.179-174.917zm.2 55.882l26.496 55.383h-49.806l23.31-55.383z" fill="#FFF"/></symbol><symbol id="bootstrap" viewBox="0 0 256 256" preserveAspectRatio="xMidYMid"><path d="M0 222.991C0 241.223 14.779 256 33.009 256H222.99C241.223 256 256 241.221 256 222.991V33.01C256 14.777 241.221 0 222.991 0H33.01C14.777 0 0 14.779 0 33.009V222.99z" fill="#563D7C"/><path d="M106.158 113.238V76.985h31.911c3.04 0 5.97.253 8.792.76 2.822.506 5.319 1.41 7.49 2.713 2.17 1.303 3.907 3.112 5.21 5.427 1.302 2.316 1.954 5.283 1.954 8.9 0 6.513-1.954 11.217-5.862 14.111-3.907 2.895-8.9 4.342-14.979 4.342h-34.516zM72.075 50.5v155h75.112c6.947 0 13.713-.868 20.298-2.605 6.585-1.737 12.446-4.414 17.584-8.032 5.137-3.618 9.226-8.286 12.265-14.002 3.04-5.717 4.559-12.483 4.559-20.298 0-9.697-2.352-17.982-7.055-24.856-4.704-6.875-11.832-11.687-21.384-14.437 6.947-3.328 12.194-7.598 15.74-12.808 3.545-5.21 5.318-11.722 5.318-19.538 0-7.236-1.194-13.314-3.582-18.235-2.388-4.92-5.753-8.864-10.095-11.831-4.341-2.967-9.551-5.102-15.63-6.404-6.078-1.303-12.808-1.954-20.189-1.954H72.075zm34.083 128.515v-42.549h37.121c7.381 0 13.315 1.7 17.802 5.102 4.486 3.401 6.73 9.081 6.73 17.041 0 4.053-.688 7.381-2.063 9.986-1.375 2.605-3.22 4.668-5.536 6.187-2.315 1.52-4.993 2.605-8.032 3.257-3.04.65-6.223.976-9.552.976h-36.47z" fill="#FFF"/></symbol><symbol id="css" viewBox="0 0 256 361" preserveAspectRatio="xMidYMid"><path d="M127.844 360.088L23.662 331.166.445 70.766h255.11l-23.241 260.36-104.47 28.962z" fill="#264DE4"/><path d="M212.417 314.547l19.86-222.49H128V337.95l84.417-23.403z" fill="#2965F1"/><path d="M53.669 188.636l2.862 31.937H128v-31.937H53.669zM47.917 123.995l2.903 31.937H128v-31.937H47.917zM128 271.58l-.14.037-35.568-9.604-2.274-25.471h-32.06l4.474 50.146 65.421 18.16.147-.04V271.58z" fill="#EBEBEB"/><path d="M60.484 0h38.68v16.176H76.66v16.176h22.506v16.175H60.484V0zM106.901 0h38.681v14.066h-22.505v2.813h22.505v32.352h-38.68V34.46h22.505v-2.813H106.9V0zM153.319 0H192v14.066h-22.505v2.813H192v32.352h-38.681V34.46h22.505v-2.813H153.32V0z"/><path d="M202.127 188.636l5.765-64.641H127.89v31.937h45.002l-2.906 32.704H127.89v31.937h39.327l-3.708 41.42-35.62 9.614v33.226l65.473-18.145.48-5.396 7.506-84.08.779-8.576z" fill="#FFF"/></symbol><symbol id="digitalocean" viewBox="0 0 256 164" preserveAspectRatio="xMidYMid"><path d="M42.8 100.2c34-21.9 72.6-6.1 91.9 4.4C108 94 69 91.6 42.8 100.2z" fill="#5FB0E2"/><path d="M71.6 0C88 0 102 9.6 108.3 23.5H95.5c-5.6-7-14.3-11.4-24.1-11.4-9.6 0-18.1 4.3-23.8 11.1.3-.2.6-.5.9-.7 13.4-9.5 31.2 1 31.2 1s-16.9-4.9-28.4 3.1-9.6 24.1-9.6 24.1-.1-.2-.2-.6c0 .2.1.4.1.6-2.7-2-6.1-3.3-9.7-3.7-.4-2.3-.7-4.7-.7-7.2C31.3 17.8 49.3 0 71.6 0zM20.1 90.9v-3.4c10.6-7.9 30.2-18.1 53.8-10.7 35.8 11.2 58.5 26.5 86.2 19.6 27.6-6.9 30.1-22 30.1-22s-4.9 21.3-32.1 26c-27.2 4.7-52.3-.6-84.3-12.5-21.6-8-42.4-1.8-53.7 3zm0-6.9c2-1.3 4-2.6 5.8-3.6-.9-.6-1.7-1.2-2.5-2-1.4-1.4-2.5-3-3.3-4.6v7.4l.2.2c.4.3.7.6 1.1.9-.5-.2-.9-.4-1.3-.7V84zm0-34.5V36.9c2.6-.9 5.4-1.4 8.2-1.6-.1 1.4-.2 2.9-.2 4.4 0 2.5.2 4.9.6 7.3-3.1.2-6 1.1-8.6 2.5zm0-12.6v12.6c-5.6 3.2-9.4 9.2-9.4 16.1 0 6.9 3.8 12.9 9.4 16.1V84c-2.3 1.5-4.5 3.2-6.3 4.6C5.7 83.4.4 74.5.4 64.3c0-12.7 8.2-23.5 19.7-27.4zm0 37c-3.6-6.9-2.4-14.8-2.4-14.8s-6 13.9 2.4 22.2v-7.4zm0 13.5c-5.5 4.1-8.6 7.5-8.6 7.5 0 .1 3.2-1.8 8.6-4.1v-3.4z" fill="url(#digitalocean-a)" transform="translate(31)"/><path d="M141.1 82s17.1 8.7 33.1 7.3c16.1-1.4 20.9-7.1 20.9-7.1s-5.9 10.9-21.3 11.5c-15.4.6-32.7-11.3-32.7-11.7zM128 26.8h14.4v14.4H128z" fill="#5FB0E2"/><path fill="#0088CF" d="M185 66.5h11.1v11.1H185z"/><path fill="#5FB0E2" d="M145.3 13.6h19.1v19.1h-19.1z"/><path fill="#0088CF" d="M200.9 46.7H220v19.1h-19.1z"/><path fill="#5FB0E2" d="M166.3 34.2H177v10.7h-10.7zM173.4 55.2h10.7v10.7h-10.7z"/><path fill="#0088CF" d="M150.9 56.3h10.7V67h-10.7zM188.4 34.6h10.7v10.7h-10.7z"/><g fill="#0A8CCC"><path d="M31.5 137.3c0 2.6-.4 5-1.3 7.2s-2.1 4.1-3.7 5.6c-1.6 1.6-3.5 2.8-5.7 3.7-2.2.9-4.7 1.3-7.3 1.3H0v-35.5h13.6c2.7 0 5.1.4 7.3 1.3s4.1 2.1 5.7 3.7c1.6 1.6 2.8 3.4 3.7 5.6.8 2.2 1.2 4.5 1.2 7.1zm-6.7 0c0-1.9-.3-3.7-.8-5.2s-1.3-2.9-2.2-3.9c-1-1.1-2.1-1.9-3.5-2.5-1.4-.6-2.9-.9-4.7-.9H6.7v25h6.9c1.7 0 3.3-.3 4.7-.9 1.4-.6 2.6-1.4 3.5-2.5 1-1.1 1.7-2.4 2.2-3.9.5-1.5.8-3.2.8-5.2zM41.3 122.6c0 .5-.1 1-.3 1.5-.2.5-.5.9-.8 1.2-.4.3-.8.6-1.2.8-.5.2-1 .3-1.5.3s-1-.1-1.5-.3c-.5-.2-.9-.5-1.2-.8-.3-.3-.6-.7-.8-1.2-.2-.5-.3-.9-.3-1.5 0-.5.1-1 .3-1.5.2-.5.5-.9.8-1.2.3-.3.7-.6 1.2-.8.5-.2 1-.3 1.5-.3s1 .1 1.5.3c.5.2.9.5 1.2.8.4.3.6.8.8 1.2.2.4.3.9.3 1.5zm-.9 7.3v25.2h-6.1v-25.2h6.1zM53.5 129.5c1.1 0 2.1.1 3 .3.9.2 1.8.5 2.6 1h7.2v2.3c0 .4-.1.7-.3.9-.2.2-.5.4-1 .4l-2.3.4c.2.4.3.9.4 1.3.1.5.1 1 .1 1.5 0 1.2-.2 2.4-.7 3.4-.5 1-1.2 1.9-2.1 2.6-.9.7-1.9 1.2-3.1 1.6-1.2.4-2.5.6-3.9.6-.9 0-1.9-.1-2.8-.3-.8.5-1.2 1-1.2 1.6 0 .5.2.9.7 1.1.5.2 1.1.4 1.8.5.8.1 1.6.1 2.6.1s2 0 3 .1 2 .2 3 .4 1.8.5 2.6 1c.8.4 1.4 1 1.8 1.8.5.8.7 1.7.7 2.9 0 1.1-.3 2.2-.8 3.3-.5 1.1-1.3 2-2.4 2.8-1 .8-2.3 1.5-3.8 2s-3.2.8-5.2.8c-1.9 0-3.6-.2-5-.6-1.4-.4-2.6-.9-3.5-1.5-.9-.6-1.6-1.3-2.1-2.1s-.7-1.6-.7-2.5c0-1.2.4-2.2 1.1-3 .7-.8 1.7-1.4 3-1.9-.6-.3-1.1-.8-1.5-1.4-.4-.6-.6-1.3-.6-2.2 0-.4.1-.8.2-1.2.1-.4.3-.8.6-1.2.3-.4.6-.8 1-1.1.4-.4.9-.7 1.4-.9-1.3-.7-2.3-1.6-3-2.8-.7-1.1-1.1-2.5-1.1-4 0-1.2.2-2.4.7-3.4.5-1 1.2-1.9 2.1-2.6.9-.7 1.9-1.3 3.2-1.6 1.5-.2 2.8-.4 4.3-.4zm6.6 26.7c0-.5-.1-.9-.4-1.2-.3-.3-.7-.6-1.2-.7-.5-.2-1.1-.3-1.8-.4-.7-.1-1.4-.1-2.2-.1h-2.4c-.8 0-1.6-.1-2.3-.3-.7.4-1.2.8-1.7 1.3-.4.5-.6 1.1-.6 1.8 0 .4.1.9.3 1.2.2.4.6.7 1.1 1 .5.3 1.1.5 1.9.7.8.2 1.7.2 2.8.2 1.1 0 2.1-.1 2.9-.3.8-.2 1.5-.4 2-.7.5-.3.9-.7 1.2-1.1.3-.5.4-.9.4-1.4zm-6.6-14.3c.8 0 1.4-.1 2-.3.6-.2 1-.5 1.4-.8.4-.4.6-.8.8-1.3.2-.5.3-1.1.3-1.7 0-1.2-.4-2.2-1.1-3-.7-.7-1.9-1.1-3.4-1.1s-2.6.4-3.4 1.1c-.7.7-1.1 1.7-1.1 3 0 .6.1 1.1.3 1.6.2.5.5.9.8 1.3.4.4.8.7 1.4.9.6.2 1.2.3 2 .3zM75.1 122.6c0 .5-.1 1-.3 1.5-.2.5-.5.9-.8 1.2-.4.3-.8.6-1.2.8-.5.2-1 .3-1.5.3s-1-.1-1.5-.3c-.5-.2-.9-.5-1.2-.8-.3-.3-.6-.7-.8-1.2-.2-.5-.3-.9-.3-1.5 0-.5.1-1 .3-1.5.2-.5.5-.9.8-1.2.3-.3.7-.6 1.2-.8.5-.2 1-.3 1.5-.3s1 .1 1.5.3c.5.2.9.5 1.2.8.4.3.6.8.8 1.2.2.4.3.9.3 1.5zm-.9 7.3v25.2h-6.1v-25.2h6.1zM86.8 155.5c-2.2 0-3.9-.6-5-1.9-1.2-1.2-1.8-2.9-1.8-5.1v-14.1h-2.6c-.3 0-.6-.1-.8-.3-.2-.2-.4-.5-.4-1v-2.4l4.1-.7 1.3-6.9c.1-.3.2-.6.5-.8.2-.2.5-.3.9-.3h3.1v7.9h6.6v4.3h-6.6v13.7c0 .8.2 1.4.6 1.8.4.4.9.7 1.6.7.4 0 .7 0 .9-.1.3-.1.5-.2.7-.3.2-.1.4-.2.5-.3.1-.1.3-.1.4-.1.2 0 .3 0 .4.1l.4.4 1.8 2.9c-.9.7-1.9 1.3-3 1.7-1.1.6-2.3.8-3.6.8zM114.9 155.1h-2.7c-.6 0-1-.1-1.4-.3-.3-.2-.6-.5-.7-1l-.5-1.8c-.6.6-1.3 1.1-1.9 1.5-.6.4-1.2.8-1.9 1.1-.7.3-1.4.5-2.1.7-.7.1-1.6.2-2.5.2-1.1 0-2-.1-2.9-.4-.9-.3-1.7-.7-2.3-1.3-.6-.6-1.2-1.3-1.5-2.1-.4-.9-.5-1.8-.5-3 0-1 .2-1.9.7-2.8.5-.9 1.3-1.8 2.5-2.5s2.7-1.4 4.6-1.9c1.9-.5 4.3-.7 7.2-.7v-1.5c0-1.7-.4-3-1.1-3.8-.7-.8-1.7-1.2-3.1-1.2-1 0-1.8.1-2.5.3-.7.2-1.2.5-1.7.8-.5.3-.9.5-1.3.8-.4.2-.9.3-1.4.3-.4 0-.8-.1-1.1-.3-.3-.2-.5-.5-.7-.8l-1.1-1.9c2.9-2.7 6.4-4 10.5-4 1.5 0 2.8.2 3.9.7 1.2.5 2.1 1.2 2.9 2 .8.9 1.4 1.9 1.8 3.1.4 1.2.6 2.5.6 3.9v15.9h.2zm-11.8-3.8c.6 0 1.2-.1 1.7-.2s1-.3 1.5-.5.9-.5 1.4-.8c.4-.3.9-.7 1.3-1.2v-4.2c-1.8 0-3.2.1-4.4.3-1.2.2-2.1.5-2.9.9-.7.3-1.2.8-1.5 1.2-.3.5-.5 1-.5 1.5 0 1.1.3 1.8.9 2.3.6.5 1.5.7 2.5.7zM124.8 118.6v36.5h-6.1v-36.5h6.1zM163.6 137.3c0 2.6-.4 5-1.3 7.2s-2.1 4.1-3.7 5.8c-1.6 1.6-3.5 2.9-5.7 3.8-2.2.9-4.7 1.4-7.3 1.4-2.6 0-5.1-.5-7.4-1.4-2.2-.9-4.1-2.2-5.7-3.8-1.6-1.6-2.8-3.5-3.7-5.8-.9-2.2-1.3-4.6-1.3-7.2 0-2.6.4-5 1.3-7.2s2.1-4.1 3.7-5.8c1.6-1.6 3.5-2.9 5.7-3.8 2.2-.9 4.7-1.4 7.4-1.4s5.1.5 7.3 1.4c2.2.9 4.1 2.2 5.7 3.8 1.6 1.6 2.8 3.5 3.7 5.7.9 2.3 1.3 4.7 1.3 7.3zm-6.7 0c0-1.9-.3-3.7-.8-5.2s-1.3-2.9-2.2-3.9c-1-1.1-2.1-1.9-3.5-2.5-1.4-.6-2.9-.9-4.7-.9-1.8 0-3.3.3-4.7.9-1.4.6-2.6 1.4-3.5 2.5-1 1.1-1.7 2.4-2.2 3.9-.5 1.5-.8 3.3-.8 5.2 0 1.9.3 3.7.8 5.2s1.3 2.9 2.2 3.9c1 1.1 2.2 1.9 3.5 2.5 1.4.6 3 .9 4.7.9 1.7 0 3.3-.3 4.7-.9 1.4-.6 2.6-1.4 3.5-2.5 1-1.1 1.7-2.4 2.2-3.9.5-1.5.8-3.2.8-5.2zM183.7 135.2l-.5.5c-.2.1-.4.2-.7.2-.3 0-.6-.1-.9-.3-.3-.2-.6-.4-1.1-.6-.4-.2-.9-.5-1.5-.6-.6-.2-1.3-.3-2.1-.3-1.1 0-2 .2-2.8.6-.8.4-1.5.9-2 1.7-.5.7-.9 1.6-1.2 2.6-.3 1-.4 2.2-.4 3.5 0 1.3.1 2.5.4 3.6.3 1 .7 1.9 1.2 2.6.5.7 1.2 1.3 2 1.6.8.4 1.6.6 2.6.6s1.7-.1 2.3-.4c.6-.2 1.1-.5 1.5-.8.4-.3.8-.5 1.1-.8.3-.2.6-.4 1-.4.5 0 .9.2 1.1.6l1.7 2.2c-.7.8-1.4 1.4-2.2 2-.8.5-1.6 1-2.4 1.3-.8.3-1.7.5-2.6.7-.9.1-1.8.2-2.7.2-1.6 0-3-.3-4.4-.9-1.4-.6-2.6-1.4-3.6-2.5s-1.8-2.5-2.4-4.1c-.6-1.6-.9-3.4-.9-5.5 0-1.8.3-3.6.8-5.1.5-1.6 1.3-2.9 2.3-4.1 1-1.2 2.3-2.1 3.8-2.7 1.5-.7 3.3-1 5.3-1 1.9 0 3.5.3 4.9.9 1.4.6 2.7 1.5 3.8 2.6l-1.4 2.1zM197.4 129.5c1.6 0 3 .3 4.4.8 1.3.5 2.5 1.2 3.5 2.2 1 1 1.7 2.2 2.3 3.6.5 1.4.8 3 .8 4.8 0 .5 0 .8-.1 1.1 0 .3-.1.5-.2.7-.1.2-.2.3-.4.4-.2.1-.4.1-.7.1h-15.6c.2 2.6.9 4.5 2.1 5.7 1.2 1.2 2.8 1.8 4.8 1.8 1 0 1.8-.1 2.5-.3.7-.2 1.3-.5 1.9-.8.5-.3 1-.5 1.4-.8.4-.2.8-.3 1.2-.3.2 0 .5 0 .6.1.2.1.3.2.5.4l1.8 2.2c-.7.8-1.4 1.4-2.3 2-.8.5-1.7 1-2.6 1.3-.9.3-1.8.5-2.8.7-.9.1-1.9.2-2.7.2-1.8 0-3.4-.3-4.9-.9-1.5-.6-2.8-1.4-3.9-2.6-1.1-1.1-2-2.5-2.6-4.2-.6-1.7-1-3.6-1-5.8 0-1.7.3-3.3.8-4.8.6-1.5 1.4-2.8 2.4-4 1-1.1 2.3-2 3.8-2.7 1.4-.6 3.1-.9 5-.9zm.1 4.4c-1.8 0-3.2.5-4.1 1.5-1 1-1.6 2.4-1.9 4.2h11.4c0-.8-.1-1.5-.3-2.2-.2-.7-.5-1.3-1-1.8-.4-.5-1-.9-1.7-1.2-.7-.4-1.5-.5-2.4-.5zM230.5 155.1h-2.7c-.6 0-1-.1-1.4-.3-.3-.2-.6-.5-.7-1l-.5-1.8c-.6.6-1.3 1.1-1.9 1.5-.6.4-1.2.8-1.9 1.1-.7.3-1.4.5-2.1.7-.7.1-1.6.2-2.5.2-1.1 0-2-.1-2.9-.4-.9-.3-1.7-.7-2.3-1.3-.6-.6-1.2-1.3-1.5-2.1-.4-.9-.5-1.8-.5-3 0-1 .2-1.9.7-2.8.5-.9 1.3-1.8 2.5-2.5s2.7-1.4 4.6-1.9c1.9-.5 4.3-.7 7.2-.7v-1.5c0-1.7-.4-3-1.1-3.8-.7-.8-1.7-1.2-3.1-1.2-1 0-1.8.1-2.5.3-.7.2-1.2.5-1.7.8-.5.3-.9.5-1.3.8-.4.2-.9.3-1.3.3s-.8-.1-1.1-.3c-.3-.2-.5-.5-.7-.8l-1.1-1.9c2.9-2.7 6.4-4 10.5-4 1.5 0 2.8.2 3.9.7 1.2.5 2.1 1.2 2.9 2 .8.9 1.4 1.9 1.8 3.1.4 1.2.6 2.5.6 3.9v15.9h.1zm-11.7-3.8c.6 0 1.2-.1 1.7-.2s1-.3 1.5-.5.9-.5 1.4-.8c.4-.3.9-.7 1.3-1.2v-4.2c-1.8 0-3.2.1-4.4.3-1.2.2-2.1.5-2.9.9-.7.3-1.2.8-1.5 1.2-.3.5-.5 1-.5 1.5 0 1.1.3 1.8.9 2.3.6.5 1.4.7 2.5.7zM234 155.1v-25.2h3.7c.8 0 1.3.4 1.5 1.1l.4 2c.5-.5 1-1 1.6-1.4.6-.4 1.2-.8 1.8-1.1.6-.3 1.3-.5 2-.7.7-.2 1.5-.2 2.4-.2 1.4 0 2.6.2 3.7.7 1.1.5 2 1.1 2.7 2 .7.8 1.3 1.8 1.6 3 .4 1.2.6 2.5.6 3.9v16h-6.1v-16c0-1.5-.4-2.7-1.1-3.6-.7-.8-1.8-1.3-3.2-1.3-1 0-2 .2-2.9.7-.9.5-1.8 1.1-2.6 1.9v18.2H234z"/></g></symbol><symbol id="git" viewBox="0 0 256 256" preserveAspectRatio="xMidYMid"><path d="M251.172 116.594L139.4 4.828c-6.433-6.437-16.873-6.437-23.314 0l-23.21 23.21 29.443 29.443c6.842-2.312 14.688-.761 20.142 4.693 5.48 5.489 7.02 13.402 4.652 20.266l28.375 28.376c6.865-2.365 14.786-.835 20.269 4.657 7.663 7.66 7.663 20.075 0 27.74-7.665 7.666-20.08 7.666-27.749 0-5.764-5.77-7.188-14.235-4.27-21.336l-26.462-26.462-.003 69.637a19.82 19.82 0 0 1 5.188 3.71c7.663 7.66 7.663 20.076 0 27.747-7.665 7.662-20.086 7.662-27.74 0-7.663-7.671-7.663-20.086 0-27.746a19.654 19.654 0 0 1 6.421-4.281V94.196a19.378 19.378 0 0 1-6.421-4.281c-5.806-5.798-7.202-14.317-4.227-21.446L81.47 39.442l-76.64 76.635c-6.44 6.443-6.44 16.884 0 23.322l111.774 111.768c6.435 6.438 16.873 6.438 23.316 0l111.251-111.249c6.438-6.44 6.438-16.887 0-23.324" fill="#DE4C36"/></symbol><symbol id="github" viewBox="0 0 512 139" preserveAspectRatio="xMidYMid"><path d="M98.696 59.312h-43.06c-1.111 0-2.013.903-2.013 2.014v21.053c0 1.111.902 2.015 2.012 2.015h16.799v26.157s-3.772 1.286-14.2 1.286c-12.303 0-29.49-4.496-29.49-42.288 0-37.8 17.897-42.773 34.698-42.773 14.543 0 20.809 2.56 24.795 3.794 1.253.384 2.412-.863 2.412-1.975l4.803-20.342c0-.52-.176-1.146-.769-1.571C93.064 5.527 83.187 0 58.233 0 29.488 0 0 12.23 0 71.023c0 58.795 33.76 67.556 62.21 67.556 23.555 0 37.844-10.066 37.844-10.066.59-.325.653-1.148.653-1.526V61.326c0-1.11-.9-2.014-2.01-2.014zm221.8-51.953c0-1.12-.888-2.024-1.999-2.024h-24.246a2.016 2.016 0 0 0-2.008 2.024l.006 46.856h-37.792V7.36c0-1.12-.892-2.024-2.001-2.024H228.21a2.014 2.014 0 0 0-2.003 2.024v126.872c0 1.12.9 2.03 2.003 2.03h24.245c1.109 0 2-.91 2-2.03V79.964h37.793l-.066 54.267c0 1.12.9 2.03 2.008 2.03h24.304c1.11 0 1.998-.91 2-2.03V7.36zM144.37 24.322c0-8.73-7-15.786-15.635-15.786-8.627 0-15.632 7.055-15.632 15.786 0 8.72 7.005 15.795 15.632 15.795 8.635 0 15.635-7.075 15.635-15.795zm-1.924 83.212V48.97c0-1.112-.897-2.021-2.006-2.021h-24.169c-1.109 0-2.1 1.144-2.1 2.256v83.905c0 2.466 1.536 3.199 3.525 3.199h21.775c2.39 0 2.975-1.173 2.975-3.239v-25.536zM413.162 46.95h-24.06c-1.104 0-2.002.909-2.002 2.028v62.21s-6.112 4.472-14.788 4.472c-8.675 0-10.977-3.937-10.977-12.431v-54.25c0-1.12-.897-2.03-2.001-2.03h-24.419c-1.102 0-2.005.91-2.005 2.03v58.358c0 25.23 14.063 31.403 33.408 31.403 15.87 0 28.665-8.767 28.665-8.767s.61 4.62.885 5.168c.276.547.994 1.098 1.77 1.098l15.535-.068c1.102 0 2.005-.911 2.005-2.025l-.008-85.168c0-1.119-.9-2.028-2.008-2.028zm55.435 68.758c-8.345-.254-14.006-4.041-14.006-4.041V71.488s5.585-3.423 12.436-4.035c8.664-.776 17.013 1.841 17.013 22.51 0 21.795-3.768 26.096-15.443 25.744zm9.49-71.483c-13.665 0-22.96 6.097-22.96 6.097V7.359a2.01 2.01 0 0 0-2-2.024h-24.315a2.013 2.013 0 0 0-2.004 2.024v126.872c0 1.12.898 2.03 2.007 2.03h16.87c.76 0 1.335-.39 1.76-1.077.419-.682 1.024-5.85 1.024-5.85s9.942 9.422 28.763 9.422c22.096 0 34.768-11.208 34.768-50.315s-20.238-44.217-33.913-44.217zM212.229 46.73h-18.187l-.028-24.027c0-.909-.468-1.364-1.52-1.364H167.71c-.964 0-1.481.424-1.481 1.35v24.83s-12.42 2.998-13.26 3.24a2.013 2.013 0 0 0-1.452 1.934v15.603c0 1.122.896 2.027 2.005 2.027h12.707v37.536c0 27.88 19.556 30.619 32.753 30.619 6.03 0 13.243-1.937 14.434-2.376.72-.265 1.138-1.01 1.138-1.82l.02-17.164c0-1.119-.945-2.025-2.01-2.025-1.06 0-3.77.431-6.562.431-8.933 0-11.96-4.154-11.96-9.53l-.001-35.67h18.188a2.014 2.014 0 0 0 2.006-2.028V48.753c0-1.12-.897-2.022-2.006-2.022z" fill="#11110F"/></symbol><symbol id="html" viewBox="0 0 256 361" preserveAspectRatio="xMidYMid"><path d="M255.555 70.766l-23.241 260.36-104.47 28.962-104.182-28.922L.445 70.766h255.11z" fill="#E44D26"/><path d="M128 337.95l84.417-23.403 19.86-222.49H128V337.95z" fill="#F16529"/><path d="M82.82 155.932H128v-31.937H47.917l.764 8.568 7.85 88.01H128v-31.937H85.739l-2.919-32.704zM90.018 236.542h-32.06l4.474 50.146 65.421 18.16.147-.04V271.58l-.14.037-35.568-9.604-2.274-25.471z" fill="#EBEBEB"/><path d="M24.18 0h16.23v16.035h14.847V0h16.231v48.558h-16.23v-16.26H40.411v16.26h-16.23V0zM92.83 16.103H78.544V0h44.814v16.103h-14.295v32.455h-16.23V16.103h-.001zM130.47 0h16.923l10.41 17.062L168.203 0h16.93v48.558h-16.164V24.49l-11.166 17.265h-.28L146.35 24.49v24.068h-15.88V0zM193.21 0h16.235v32.508h22.824v16.05h-39.06V0z"/><path d="M127.89 220.573h39.327l-3.708 41.42-35.62 9.614v33.226l65.473-18.145.48-5.396 7.506-84.08.779-8.576H127.89v31.937zM127.89 155.854v.078h77.143l.64-7.178 1.456-16.191.763-8.568H127.89v31.86z" fill="#FFF"/></symbol><symbol id="jquery" viewBox="0 0 512 116"><g fill="none" fill-rule="evenodd"><path d="M489.718 8.646l21.42.118s-39.824 53.964-43.076 58.362c-1.056 1.424-2.66 2.96-3.474 4.864-2.057 4.786-4.169 15.285-4.169 15.285l-19.599.098s3.05-10.944 2.924-16.773c-.11-5.092-2.71-10.178-4.168-15.285-1.474-5.17-3.475-15.286-3.475-15.286h20.15l2.779 11.117 30.688-42.5" fill="#1A1918"/><path d="M449.157 20.027c3.953 2.383 6.379 15.529 6.379 15.529s-20.684.305-31.94.305h-9.727l-11.812 51.414h-18.064s11.242-55.874 13.896-66.004c.86-3.28 5.892-2.717 14.389-2.717h13.569c8.762 0 19.003-1.119 23.31 1.473M365.06 45.067s.563-3.3-1.91-7.122c-2.113-3.258-4.064-4.016-9.623-4.19-15.695-.493-15.39 11.138-15.39 11.138l26.923.174zm17.022-13.32c2.3 8.297-2.084 27.792-2.084 27.792s-22.894-.382-35.434 0c-3.899.119-8.566-.424-9.727 1.39-1.633 2.542.597 6.455 2.487 8.108 2.175 1.903 6.412 2.12 7.935 2.313 10.178 1.293 31.48.334 31.48.334l-3.69 16.34s-30.103 1.51-45.16-2.084c-2.973-.708-5.76-2.139-7.643-4.168-.514-.555-.96-1.312-1.446-1.966-.388-.522-1.52-2.237-2.028-3.593-3.439-9.164.403-26.72 4.169-36.128.437-1.09.986-2.473 1.564-3.648.722-1.465 1.333-3.119 1.91-3.995.388-.604.869-.993 1.272-1.563.465-.674 1.006-1.327 1.507-1.91 1.39-1.612 2.967-2.752 4.864-4.168 6.273-4.698 17.626-8.345 31.265-6.949 5.135.528 12.89 2.362 16.675 7.643 1.014 1.41 1.515 4.21 2.084 6.253zM299.229 18.49l17.516-.103s-9.762 46.307-14.737 68.888h-20.15c-14.082 0-26.623 1.744-31.959-8.338-5.176-9.789-.236-25.887 2.084-36.824 1.64-7.74 5.094-23.56 5.094-23.56l18.148-.166s-5.128 24.63-7.262 36.928c-.764 4.405-2.34 8.553-.694 11.81 1.563 3.1 3.752 3.322 10.421 3.475 2.113.05 9.033 0 9.033 0l12.506-52.11M217.244 51.84c1.834-6.516 4.509-13.582 4.169-19.454-.368-6.28-5.634-11.998-9.032-13.2-10.234-3.613-19.815 1.438-23.623 5.558-4.926 5.336-6.594 11.569-8.338 20.15-1.298 6.37-2.362 13.095 0 18.063 4.182 8.783 17.224 6.865 31.266 6.949 2.084-5.586 3.807-11.86 5.558-18.066zm24.318-25.706c2 14.548-5.676 30.606-10.964 44.57 5.392.487 10.117-.075 10.457.327.354.521-3.614 16.668-4.997 16.71-4.279.111-18.459.229-24.372.229-19.295 0-37.345 1.257-46.55-8.337-3.738-3.898-6.323-10.583-6.949-15.286-1.042-7.851.264-16.495 2.085-23.622 1.647-6.435 3.758-12.507 6.948-18.066C175.328 8.507 189.432-1.998 213.075.427c4.586.472 11.172 2.48 15.286 4.863.284.167 1.279.959 1.507 1.098 5.559 3.537 10.624 11.978 11.694 19.746zM156.193 18.574c-1.167 5.315-2.334 11.34-3.564 16.592h-19.454c1.507-5.822 2.661-11.61 4.169-16.675 6.225 0 12.013.083 18.85.083M132.48 40.03h18.76c-2.453 13.576-7.31 35.475-11.117 50.719-2.383 9.54-3.974 16.501-10.422 21.538-.577.452-.91.237-1.39.695-1.188 1.133-6.684 2.447-9.726 2.779-4.947.536-10.54.07-16.62-.055 1.591-5.815 3.391-12.798 4.809-18.01 14.82 1.794 15.195-12.214 18.064-25.706 1.66-7.796 6.691-28.834 7.642-31.96" fill="#1A1918"/><g fill="#21609B"><path d="M88.708 75.464l-.402 1.042c-6.85 13.34-18.989 21.524-36.303 21.885-8.094.167-15.806-1.91-20.844-4.168C20.287 89.338 11.142 80.279 6.148 70.6c-7.164-13.875-8.456-33.176 6.44-47.592.23 0-1.807 3.126-1.577 3.126l-.41 1.334C-.133 61.074 32.938 89.874 65.086 86.58c7.726-.792 17.578-5.023 23.622-11.116"/><path d="M69.254 61.568c8.088.055 16.536-3.725 21.539-9.032-4.377 11.11-17.05 18.251-34.044 15.98-14.23-1.904-27.785-16.223-29.181-30.571-1.021-10.442 2.618-16.674 8.615-24.234-2.084 3.954-2.863 7.003-3.057 8.948-2.278 22.588 18.044 38.79 36.128 38.909"/><path d="M89.98 33.512c-1.257 2.884-8.496 8.33-11.693 9.011-12.659 2.697-20.766-3.306-25.013-10.137-.631-1.02-1.798-3.806-2.007-4.515-1.647-5.6-.89-14.07 4.023-18.454-1.48 4.169-1.696 9.011-.917 12.159.472 1.903 1.91 5.226 3.349 7.316 2.618 3.807 4.279 4.732 7.642 6.754 1.515.91 3.14 1.64 3.842 1.84 3.189.939 9.922 3.412 20.775-3.974"/></g></g></symbol><symbol id="laravel" viewBox="0 0 256 256" preserveAspectRatio="xMidYMid"><g fill="#F35045"><path d="M160.445 208c2 2.889 3.222 2.667 4.777 2 1.555-.667 81.556-27.667 84-28.555 2.444-.889 1.667-1.667.89-2.89-.778-1.222-27.445-37.444-28.779-39.555-1.333-2.111-2-1.667-4.111-1l-84.805 22.067S158.445 205.11 160.445 208zM256 171.115v-42.398c-9.541 2.542-21.609 5.756-26.373 7.023 7.187 9.616 18.423 24.665 26.373 35.375zM229.545 83.521c-1.307.297-30.247 5.527-32.03 5.764-1.782.238-1.188 1.248-.475 2.258l25.467 34.943s31.139-7.725 33.041-8.141c.154-.034.305-.07.452-.107v-4.627c-5.66-7.177-21.08-26.718-22.413-28.544-1.604-2.199-2.734-1.842-4.042-1.546z"/><path d="M47.456 28.634c6.267-.285 6.839 1.141 9.592 5.224l69.17 115.642 86.974-20.835c-4.819-6.831-26.695-37.846-28.81-40.806-2.376-3.328.06-4.873 3.923-5.526 3.862-.654 37.14-6.24 39.992-6.656 2.853-.416 5.112-1.426 9.746 4.16 2.372 2.858 10.412 12.87 17.957 22.255V48c0-13.222-4.695-24.528-14.083-33.917C232.528 4.695 221.222 0 208 0H48C34.778 0 23.472 4.695 14.083 14.083 8.698 19.47 4.865 25.487 2.57 32.134c15.678-1.288 40.501-3.3 44.887-3.5z"/><path d="M168.289 223.564c-7.334 2.222-10.623 3.325-15.4-3.342-3.578-4.993-22.927-39.843-32.414-57.023-17.955 4.702-50.814 13.278-60.29 15.555-9.248 2.222-13.198-3.323-14.717-6.74C44.403 169.616 17.289 111.158 0 73.65V208c0 13.223 4.695 24.527 14.083 33.917C23.472 251.305 34.778 256 48 256h160c13.222 0 24.528-4.695 33.917-14.083C251.305 232.527 256 221.223 256 208v-15.781c-19.64 7.184-82.77 29.848-87.711 31.345z"/><path d="M60.412 165.288c2.6-.595 51.313-12.253 52.353-12.476 1.04-.223 1.708-.817.594-2.747-1.114-1.93-64.934-112.09-64.934-112.09-.589-1.011-.421-1.348-2.022-1.264-1.427.076-37.538 3.298-45.898 3.996a51.038 51.038 0 0 0-.461 5.331c8.487 17.375 57.199 117.837 57.472 118.655.297.892.297 1.189 2.896.595z"/></g></symbol><symbol id="php" viewBox="0 0 256 135" preserveAspectRatio="xMidYMid"><ellipse fill="url(#php-a)" cx="128" cy="67.3" rx="128" ry="67.3"/><ellipse fill="#6181B6" cx="128" cy="67.3" rx="123" ry="62.3"/><g fill="#FFF"><path d="M152.9 87.5l6.1-31.4c1.4-7.1.2-12.4-3.4-15.7-3.5-3.2-9.5-4.8-18.3-4.8h-10.6l3-15.6c.1-.6 0-1.2-.4-1.7s-.9-.7-1.5-.7h-14.6c-1 0-1.8.7-2 1.6l-6.5 33.3c-.6-3.8-2-7-4.4-9.6-4.3-4.9-11-7.4-20.1-7.4H52.1c-1 0-1.8.7-2 1.6L37 104.7c-.1.6 0 1.2.4 1.7s.9.7 1.5.7h14.7c1 0 1.8-.7 2-1.6l3.2-16.3h10.9c5.7 0 10.6-.6 14.3-1.8 3.9-1.3 7.4-3.4 10.5-6.3 2.5-2.3 4.6-4.9 6.2-7.7l-2.6 13.5c-.1.6 0 1.2.4 1.7s.9.7 1.5.7h14.6c1 0 1.8-.7 2-1.6l7.2-37h10c4.3 0 5.5.8 5.9 1.2.3.3.9 1.5.2 5.2L134.1 87c-.1.6 0 1.2.4 1.7s.9.7 1.5.7h15c.9-.3 1.7-1 1.9-1.9zm-67.6-26c-.9 4.7-2.6 8.1-5.1 10-2.5 1.9-6.6 2.9-12 2.9h-6.5l4.7-24.2h8.4c6.2 0 8.7 1.3 9.7 2.4 1.3 1.6 1.6 4.7.8 8.9zM215.3 42.9c-4.3-4.9-11-7.4-20.1-7.4h-28.3c-1 0-1.8.7-2 1.6l-13.1 67.5c-.1.6 0 1.2.4 1.7s.9.7 1.5.7h14.7c1 0 1.8-.7 2-1.6l3.2-16.3h10.9c5.7 0 10.6-.6 14.3-1.8 3.9-1.3 7.4-3.4 10.5-6.3 2.6-2.4 4.8-5.1 6.4-8 1.6-2.9 2.8-6.1 3.5-9.6 1.7-8.7.4-15.5-3.9-20.5zM200 61.5c-.9 4.7-2.6 8.1-5.1 10-2.5 1.9-6.6 2.9-12 2.9h-6.5l4.7-24.2h8.4c6.2 0 8.7 1.3 9.7 2.4 1.4 1.6 1.7 4.7.8 8.9z"/></g><g fill="#000004"><path d="M74.8 48.2c5.6 0 9.3 1 11.2 3.1 1.9 2.1 2.3 5.6 1.3 10.6-1 5.2-3 9-5.9 11.2-2.9 2.2-7.3 3.3-13.2 3.3h-8.9l5.5-28.2h10zM39 105h14.7l3.5-17.9h12.6c5.6 0 10.1-.6 13.7-1.8 3.6-1.2 6.8-3.1 9.8-5.9 2.5-2.3 4.5-4.8 6-7.5s2.6-5.7 3.2-9c1.6-8 .4-14.2-3.5-18.7s-10.1-6.7-18.6-6.7H52.1L39 105zM113.3 19.6h14.6l-3.5 17.9h13c8.2 0 13.8 1.4 16.9 4.3 3.1 2.9 4 7.5 2.8 13.9L151 87.1h-14.8l5.8-29.9c.7-3.4.4-5.7-.7-6.9-1.1-1.2-3.6-1.9-7.3-1.9h-11.7l-7.5 38.7h-14.6l13.1-67.5zM189.5 48.2c5.6 0 9.3 1 11.2 3.1 1.9 2.1 2.3 5.6 1.3 10.6-1 5.2-3 9-5.9 11.2-2.9 2.2-7.3 3.3-13.2 3.3H174l5.5-28.2h10zM153.7 105h14.7l3.5-17.9h12.6c5.6 0 10.1-.6 13.7-1.8 3.6-1.2 6.8-3.1 9.8-5.9 2.5-2.3 4.5-4.8 6-7.5s2.6-5.7 3.2-9c1.6-8 .4-14.2-3.5-18.7s-10.1-6.7-18.6-6.7h-28.3L153.7 105z"/></g></symbol><symbol id="rails" viewBox="0 0 256 330" preserveAspectRatio="xMidYMid"><path d="M4.096 325.463s.497-77.984.497-157.26C4.593 14.654-8.346 3.217 60.55 3.217H252.32v221.483c0 72.91 13.629 101.472-62.994 101.472-76.622 0-185.229-.708-185.229-.708z" fill="#A62C39"/><path d="M1.887 29.917s12.288 2.458 22.938 20.48c10.65 18.023 67.176 158.11 67.176 158.11V94.634L39.57 9.437 54.317 27.46 82.17 4.52 46.125 2.064 1.887 29.917z" transform="translate(160.318 2.266)" fill="url(#rails-a)"/><path d="M3.102.889s81.102 54.068 120.425 64.718c39.322 10.65 79.464 22.15 79.464 22.15l-92.572 229.35 40.142 1.638 52.43-128.604L201.352.07 3.102.89z" opacity=".668" fill="url(#rails-b)" transform="translate(50.147 4.26)"/><path d="M128.617 246.818l82.419 79.22-155.33-1.394s-4.915-49.973-3.276-76.188c1.638-26.214 9.83-26.214 9.83-26.214l66.357 24.576z" fill-opacity=".44" fill="#FFF"/><path d="M206.443 326.282l-76.188-78.645-69.633-26.215L6.554 100.997 63.899 5.15H27.163L9.831 18.257 4.096 29.726v296.556h202.347z" fill-opacity=".362"/><path d="M253.138 200.942s-77.006 24.576-122.883 47.514c-45.876 22.939-70.452 78.645-70.452 78.645s98.306-4.915 135.17-3.277c36.865 1.639 54.069 1.639 57.346-49.972 3.277-51.61.819-72.91.819-72.91z" opacity=".5" fill="#83222D"/><g fill="#FFF"><path d="M27.833 249.867v48.385h12.34v-12.603l11.232 11.231H70.34l-15.018-15.018s10.805-.174 11.623-15.801c0-14.337-10.817-16.194-23.31-16.194H27.833zm12.928 13.125h10.644v8.619H40.76v-8.62zM94.173 250.063c-6.756-.038-16.128.589-16.128 13.32v33.628h12.668v-8.227h12.275v8.031h12.733v-35.26c0-11.06-12.287-11.492-18.87-11.492-.823 0-1.712.007-2.678 0zm-3.264 12.145h11.883v13.255H90.91v-13.255zM128.412 250.095h13.107v46.286h-13.107zM155.242 250.71v46.285h31.54v-12.288h-18.638v-34.203l-12.902.205zM228.561 250.3v12.493h-21.094v4.505h9.011c4.71 0 14.541-.204 14.541 14.542 0 14.745-6.758 15.565-20.48 15.565h-16.59V286.14h19.047c5.735 0 6.051-1.866 6.051-3.493 0-1.627-2.932-2.383-8.895-2.383-5.962 0-17.022-2.93-17.022-14.4 0-11.468 5.735-15.77 17.204-15.77 11.469 0 18.227.206 18.227.206z"/></g><g fill="#FFF"><path d="M39.322 236.168h108.956s-24.167-54.887-18.023-105.27c6.145-50.381 45.877-73.319 68.405-75.777 22.529-2.457 34.817 11.47 34.817 11.47l4.915-7.374s-32.359-32.768-73.32-29.082c-40.96 3.687-69.224 30.72-86.837 63.49-17.613 32.768-27.853 55.706-34.817 90.113-6.963 34.407-4.096 52.43-4.096 52.43zM17.613 181.28l21.3 1.64-3.687 21.299-20.07-2.458 2.457-20.48zM51.201 136.224l5.735-15.975-18.842-7.373-6.145 17.204 19.252 6.144zM77.826 81.336L88.885 68.23l-14.336-9.421-11.47 12.698 14.747 9.83zM106.908 30.545l9.83 11.878 13.517-7.782-9.83-11.06-13.517 6.964zM154.832 17.028l2.458 11.878 16.794-.41-1.639-10.649-17.613-.82z"/><path d="M211.768 29.726l-.41 7.373 11.469 6.144 2.458-3.687-13.517-9.83zM209.31 61.265v6.145l11.06 1.228v-4.915l-11.06-2.458zM174.084 66.59l5.324 9.831 7.783-6.144-1.638-6.554-11.47 2.867zM157.29 79.288l8.192 12.288-4.916 8.602-11.878-13.107 8.602-7.783zM140.905 113.286l-5.325 10.65 13.927 11.878 3.277-13.517-11.879-9.011zM135.17 150.56l-.818 14.336 17.203 7.373-.82-13.517-15.564-8.192zM140.086 201.351l4.096 14.746 21.71 1.23-7.783-15.976h-18.023z"/></g><path d="M7.23 325.483l.006-.896.016-2.611.056-9.92c.058-10.688.116-22.615.17-35.481.156-36.76.249-73.683.249-108.371 0-17.874-.154-33.483-.483-55.323-1.006-66.73-.522-79.44 5.048-91.433C17.888 9.4 28.392 6.35 60.55 6.35H252.32l-3.134-3.134v221.483c0 6.797.073 12.662.25 22.541.686 38.077-.157 48.904-6.303 58.938-7.188 11.737-22.663 16.859-53.807 16.859-17.583 0-38.269-.04-61.423-.116-18.624-.06-38.366-.141-58.68-.238a49757.97 49757.97 0 0 1-63.832-.346l-1.274-.008 3.114 3.154zm-6.288 3.094l3.134.02a10459.048 10459.048 0 0 0 4.952.03 49763.195 49763.195 0 0 0 60.163.324c20.318.097 40.063.178 58.691.239 23.16.075 43.852.115 61.443.115 33.108 0 50.524-5.764 59.153-19.853 7.07-11.543 7.938-22.703 7.225-62.324-.177-9.844-.25-15.679-.25-22.429V.082H60.55C26.07.082 13.626 3.694 6.607 18.807 3.098 26.362 1.403 36.821.788 52.98.314 65.432.363 72.295.977 112.976c.328 21.811.482 37.391.482 55.228 0 34.678-.094 71.592-.249 108.344a29153.399 29153.399 0 0 1-.227 45.39l-.015 2.61-.026 4.03z" fill="#5E000E"/></symbol><symbol id="ruby" viewBox="0 0 256 255" preserveAspectRatio="xMidYMid"><path d="M197.467 167.764l-145.52 86.41 188.422-12.787L254.88 51.393l-57.414 116.37z" fill="url(#ruby-a)"/><path d="M240.677 241.257L224.482 129.48l-44.113 58.25 60.308 53.528z" fill="url(#ruby-b)"/><path d="M240.896 241.257l-118.646-9.313-69.674 21.986 188.32-12.673z" fill="url(#ruby-c)"/><path d="M52.744 253.955l29.64-97.1L17.16 170.8l35.583 83.154z" fill="url(#ruby-d)"/><path d="M180.358 188.05L153.085 81.226l-78.047 73.16 105.32 33.666z" fill="url(#ruby-e)"/><path d="M248.693 82.73l-73.777-60.256-20.544 66.418 94.321-6.162z" fill="url(#ruby-f)"/><path d="M214.191.99L170.8 24.97 143.424.669l70.767.322z" fill="url(#ruby-g)"/><path d="M0 203.372l18.177-33.151-14.704-39.494L0 203.372z" fill="url(#ruby-h)"/><path d="M2.496 129.48l14.794 41.963 64.283-14.422 73.39-68.207 20.712-65.787L143.063 0 87.618 20.75c-17.469 16.248-51.366 48.396-52.588 49-1.21.618-22.384 40.639-32.534 59.73z" fill="#FFF"/><path d="M54.442 54.094c37.86-37.538 86.667-59.716 105.397-40.818 18.72 18.898-1.132 64.823-38.992 102.349-37.86 37.525-86.062 60.925-104.78 42.027-18.73-18.885.515-66.032 38.375-103.558z" fill="url(#ruby-i)"/><path d="M52.744 253.916l29.408-97.409 97.665 31.376c-35.312 33.113-74.587 61.106-127.073 66.033z" fill="url(#ruby-j)"/><path d="M155.092 88.622l25.073 99.313c29.498-31.016 55.972-64.36 68.938-105.603l-94.01 6.29z" fill="url(#ruby-k)"/><path d="M248.847 82.833c10.035-30.282 12.35-73.725-34.966-81.791l-38.825 21.445 73.791 60.346z" fill="url(#ruby-l)"/><path d="M0 202.935c1.39 49.979 37.448 50.724 52.808 51.162l-35.48-82.86L0 202.935z" fill="#9E1209"/><path d="M155.232 88.777c22.667 13.932 68.35 41.912 69.276 42.426 1.44.81 19.695-30.784 23.838-48.64l-93.114 6.214z" fill="url(#ruby-m)"/><path d="M82.113 156.507l39.313 75.848c23.246-12.607 41.45-27.967 58.121-44.42l-97.434-31.428z" fill="url(#ruby-n)"/><path d="M17.174 171.34l-5.57 66.328c10.51 14.357 24.97 15.605 40.136 14.486-10.973-27.311-32.894-81.92-34.566-80.814z" fill="url(#ruby-o)"/><path d="M174.826 22.654l78.1 10.96c-4.169-17.662-16.969-29.06-38.787-32.623l-39.313 21.663z" fill="url(#ruby-p)"/></symbol></svg>