<svg data-v-d3f97b9e="" xmlns="http://www.w3.org/2000/svg" viewBox="0 0 508 90"><!----><!----><!----><g data-v-d3f97b9e="" id="24f9b2fe-8e34-4ea7-9f61-be33276d61bd" fill="white" transform="matrix(4.559270569581267,0,0,4.559270569581267,107.58359544846417,1.3677811918899963)"><path d="M8.29 11.34L8.52 11.55L8.52 11.55Q8.34 11.81 8.09 12.10L8.09 12.10L8.09 12.10Q7.83 12.39 7.53 12.64L7.53 12.64L7.53 12.64Q7.23 12.89 6.89 13.05L6.89 13.05L6.89 13.05Q6.56 13.22 6.20 13.22L6.20 13.22L6.20 13.22Q5.96 13.22 5.76 13.15L5.76 13.15L5.76 13.15Q5.55 13.08 5.38 12.95L5.38 12.95L5.38 12.95Q5.20 12.83 5.05 12.67L5.05 12.67L5.05 12.67Q4.89 12.51 4.76 12.34L4.76 12.34L4.76 12.34Q4.31 11.78 3.88 11.21L3.88 11.21L3.88 11.21Q3.45 10.64 3.05 10.06L3.05 10.06L3.12 9.78L3.12 9.78Q3.57 9.70 4.02 9.55L4.02 9.55L4.02 9.55Q4.48 9.39 4.89 9.16L4.89 9.16L4.89 9.16Q5.31 8.93 5.67 8.63L5.67 8.63L5.67 8.63Q6.04 8.33 6.30 7.95L6.30 7.95L6.30 7.95Q6.57 7.58 6.72 7.14L6.72 7.14L6.72 7.14Q6.88 6.70 6.88 6.19L6.88 6.19L6.88 6.19Q6.88 5.71 6.72 5.30L6.72 5.30L6.72 5.30Q6.56 4.89 6.28 4.59L6.28 4.59L6.28 4.59Q6.00 4.29 5.60 4.12L5.60 4.12L5.60 4.12Q5.20 3.95 4.72 3.95L4.72 3.95L4.72 3.95Q4.10 3.95 3.56 4.09L3.56 4.09L3.56 4.09Q3.03 4.22 2.55 4.45L2.55 4.45L2.55 4.45Q2.06 4.68 1.62 4.98L1.62 4.98L1.62 4.98Q1.18 5.27 0.75 5.58L0.75 5.58L0.53 5.35L0.53 5.35Q0.94 4.96 1.42 4.56L1.42 4.56L1.42 4.56Q1.89 4.16 2.49 3.83L2.49 3.83L2.49 3.83Q3.08 3.51 3.82 3.31L3.82 3.31L3.82 3.31Q4.55 3.11 5.48 3.11L5.48 3.11L5.48 3.11Q6.10 3.11 6.62 3.33L6.62 3.33L6.62 3.33Q7.14 3.55 7.52 3.94L7.52 3.94L7.52 3.94Q7.90 4.33 8.11 4.86L8.11 4.86L8.11 4.86Q8.32 5.39 8.32 6.02L8.32 6.02L8.32 6.02Q8.32 7 7.83 7.72L7.83 7.72L7.83 7.72Q7.33 8.44 6.49 8.89L6.49 8.89L6.49 8.89Q6.39 8.95 6.24 9.04L6.24 9.04L6.24 9.04Q6.08 9.13 5.90 9.23L5.90 9.23L5.90 9.23Q5.72 9.33 5.53 9.43L5.53 9.43L5.53 9.43Q5.34 9.54 5.16 9.62L5.16 9.62L5.16 9.62Q4.98 9.71 4.83 9.77L4.83 9.77L4.83 9.77Q4.68 9.83 4.58 9.84L4.58 9.84L4.58 9.84Q4.72 10.04 4.93 10.30L4.93 10.30L4.93 10.30Q5.14 10.57 5.37 10.85L5.37 10.85L5.37 10.85Q5.59 11.13 5.81 11.38L5.81 11.38L5.81 11.38Q6.04 11.63 6.21 11.79L6.21 11.79L6.21 11.79Q6.38 11.94 6.56 12.04L6.56 12.04L6.56 12.04Q6.73 12.15 6.97 12.15L6.97 12.15L6.97 12.15Q7.16 12.15 7.34 12.08L7.34 12.08L7.34 12.08Q7.53 12.00 7.70 11.87L7.70 11.87L7.70 11.87Q7.87 11.75 8.02 11.61L8.02 11.61L8.02 11.61Q8.17 11.46 8.29 11.34L8.29 11.34ZM2.74 5.09L2.74 12.73L1.33 13.25L1.33 5.58L2.74 5.09ZM11.66 13.19L11.66 13.19L11.66 13.19Q11.15 13.19 10.71 13.01L10.71 13.01L10.71 13.01Q10.27 12.83 9.94 12.51L9.94 12.51L9.94 12.51Q9.62 12.19 9.43 11.75L9.43 11.75L9.43 11.75Q9.24 11.32 9.24 10.81L9.24 10.81L9.24 10.81Q9.24 10.23 9.43 9.72L9.43 9.72L9.43 9.72Q9.63 9.21 9.96 8.80L9.96 8.80L9.96 8.80Q10.30 8.39 10.76 8.09L10.76 8.09L10.76 8.09Q11.22 7.79 11.76 7.62L11.76 7.62L11.96 7.85L11.96 7.85Q11.66 8.08 11.39 8.37L11.39 8.37L11.39 8.37Q11.12 8.66 10.92 9.00L10.92 9.00L10.92 9.00Q10.73 9.34 10.61 9.71L10.61 9.71L10.61 9.71Q10.49 10.08 10.49 10.47L10.49 10.47L10.49 10.47Q10.49 10.80 10.59 11.16L10.59 11.16L10.59 11.16Q10.68 11.53 10.88 11.83L10.88 11.83L10.88 11.83Q11.07 12.13 11.36 12.32L11.36 12.32L11.36 12.32Q11.65 12.52 12.03 12.52L12.03 12.52L12.03 12.52Q12.37 12.52 12.62 12.39L12.62 12.39L12.62 12.39Q12.87 12.27 13.04 12.06L13.04 12.06L13.04 12.06Q13.20 11.85 13.28 11.56L13.28 11.56L13.28 11.56Q13.36 11.28 13.36 10.96L13.36 10.96L13.36 10.96Q13.36 10.60 13.22 10.21L13.22 10.21L13.22 10.21Q13.08 9.82 12.83 9.50L12.83 9.50L12.83 9.50Q12.58 9.17 12.24 8.95L12.24 8.95L12.24 8.95Q11.91 8.73 11.53 8.70L11.53 8.70L11.53 8.70Q11.76 8.42 12.05 8.19L12.05 8.19L12.05 8.19Q12.34 7.96 12.63 7.75L12.63 7.75L12.63 7.75Q13.03 7.88 13.33 8.13L13.33 8.13L13.33 8.13Q13.64 8.38 13.85 8.71L13.85 8.71L13.85 8.71Q14.05 9.04 14.16 9.42L14.16 9.42L14.16 9.42Q14.27 9.81 14.27 10.21L14.27 10.21L14.27 10.21Q14.27 10.75 14.09 11.28L14.09 11.28L14.09 11.28Q13.90 11.81 13.55 12.24L13.55 12.24L13.55 12.24Q13.21 12.67 12.73 12.93L12.73 12.93L12.73 12.93Q12.24 13.19 11.66 13.19ZM20.11 10.32L20.11 10.32L20.11 10.32Q20.11 10.81 19.88 11.31L19.88 11.31L19.88 11.31Q19.64 11.81 19.26 12.23L19.26 12.23L19.26 12.23Q18.87 12.65 18.39 12.91L18.39 12.91L18.39 12.91Q17.90 13.17 17.39 13.17L17.39 13.17L17.39 13.17Q16.92 13.17 16.56 13.01L16.56 13.01L16.56 13.01Q16.19 12.85 15.95 12.57L15.95 12.57L15.95 12.57Q15.70 12.28 15.58 11.90L15.58 11.90L15.58 11.90Q15.45 11.51 15.45 11.06L15.45 11.06L15.45 3.67L16.71 3.23L16.71 11.29L16.71 11.29Q16.71 11.52 16.77 11.74L16.77 11.74L16.77 11.74Q16.83 11.97 16.95 12.15L16.95 12.15L16.95 12.15Q17.08 12.33 17.26 12.44L17.26 12.44L17.26 12.44Q17.45 12.56 17.71 12.56L17.71 12.56L17.71 12.56Q18.03 12.56 18.26 12.40L18.26 12.40L18.26 12.40Q18.50 12.25 18.66 12.01L18.66 12.01L18.66 12.01Q18.82 11.76 18.90 11.48L18.90 11.48L18.90 11.48Q18.98 11.19 18.98 10.92L18.98 10.92L18.98 10.92Q18.98 10.53 18.83 10.12L18.83 10.12L18.83 10.12Q18.68 9.71 18.42 9.39L18.42 9.39L18.42 9.39Q18.16 9.06 17.81 8.84L17.81 8.84L17.81 8.84Q17.47 8.62 17.07 8.59L17.07 8.59L18.20 7.75L18.20 7.75Q18.57 7.87 18.92 8.13L18.92 8.13L18.92 8.13Q19.26 8.39 19.53 8.74L19.53 8.74L19.53 8.74Q19.80 9.09 19.95 9.50L19.95 9.50L19.95 9.50Q20.11 9.91 20.11 10.32ZM25.61 11.48L25.82 11.70L25.82 11.70Q25.58 12.01 25.30 12.28L25.30 12.28L25.30 12.28Q25.01 12.54 24.68 12.74L24.68 12.74L24.68 12.74Q24.35 12.94 23.98 13.06L23.98 13.06L23.98 13.06Q23.61 13.17 23.21 13.17L23.21 13.17L23.21 13.17Q22.71 13.17 22.29 12.99L22.29 12.99L22.29 12.99Q21.86 12.81 21.55 12.49L21.55 12.49L21.55 12.49Q21.25 12.17 21.08 11.74L21.08 11.74L21.08 11.74Q20.90 11.31 20.90 10.81L20.90 10.81L20.90 10.81Q20.90 10.40 21.02 10.00L21.02 10.00L21.02 10.00Q21.14 9.60 21.35 9.26L21.35 9.26L21.35 9.26Q21.56 8.91 21.85 8.61L21.85 8.61L21.85 8.61Q22.14 8.31 22.49 8.10L22.49 8.10L22.49 8.10Q22.84 7.89 23.23 7.77L23.23 7.77L23.23 7.77Q23.62 7.65 24.03 7.65L24.03 7.65L24.03 7.65Q24.32 7.65 24.57 7.72L24.57 7.72L24.57 7.72Q24.83 7.79 25.03 7.93L25.03 7.93L25.03 7.93Q25.22 8.08 25.34 8.31L25.34 8.31L25.34 8.31Q25.46 8.54 25.46 8.85L25.46 8.85L25.46 8.85Q25.46 9.11 25.30 9.40L25.30 9.40L25.30 9.40Q25.15 9.69 24.90 9.97L24.90 9.97L24.90 9.97Q24.65 10.26 24.34 10.54L24.34 10.54L24.34 10.54Q24.02 10.81 23.70 11.05L23.70 11.05L23.70 11.05Q23.37 11.29 23.07 11.46L23.07 11.46L23.07 11.46Q22.77 11.64 22.54 11.74L22.54 11.74L22.54 11.74Q22.80 12.05 23.13 12.25L23.13 12.25L23.13 12.25Q23.47 12.45 23.84 12.45L23.84 12.45L23.84 12.45Q24.08 12.45 24.33 12.36L24.33 12.36L24.33 12.36Q24.58 12.26 24.80 12.12L24.80 12.12L24.80 12.12Q25.03 11.98 25.24 11.81L25.24 11.81L25.24 11.81Q25.45 11.63 25.61 11.48L25.61 11.48ZM24.17 9.11L24.17 9.11L24.17 9.11Q24.17 8.95 24.12 8.80L24.12 8.80L24.12 8.80Q24.07 8.66 23.97 8.56L23.97 8.56L23.97 8.56Q23.88 8.45 23.74 8.38L23.74 8.38L23.74 8.38Q23.61 8.32 23.44 8.32L23.44 8.32L23.44 8.32Q23.13 8.32 22.87 8.53L22.87 8.53L22.87 8.53Q22.61 8.75 22.43 9.06L22.43 9.06L22.43 9.06Q22.24 9.38 22.13 9.73L22.13 9.73L22.13 9.73Q22.03 10.08 22.03 10.35L22.03 10.35L22.03 10.35Q22.03 10.61 22.11 10.88L22.11 10.88L22.11 10.88Q22.19 11.16 22.33 11.41L22.33 11.41L22.33 11.41Q22.61 11.26 22.93 10.99L22.93 10.99L22.93 10.99Q23.25 10.73 23.53 10.41L23.53 10.41L23.53 10.41Q23.80 10.09 23.99 9.75L23.99 9.75L23.99 9.75Q24.17 9.41 24.17 9.11ZM30.34 12.11L30.51 12.29L30.51 12.29Q30.39 12.48 30.21 12.64L30.21 12.64L30.21 12.64Q30.03 12.79 29.82 12.90L29.82 12.90L29.82 12.90Q29.61 13.01 29.37 13.07L29.37 13.07L29.37 13.07Q29.14 13.13 28.92 13.13L28.92 13.13L28.92 13.13Q28.62 13.13 28.40 13.02L28.40 13.02L28.40 13.02Q28.18 12.91 28.05 12.72L28.05 12.72L28.05 12.72Q27.91 12.54 27.85 12.29L27.85 12.29L27.85 12.29Q27.78 12.04 27.78 11.78L27.78 11.78L27.78 11.78Q27.78 11.43 27.89 11.03L27.89 11.03L27.89 11.03Q27.99 10.63 28.17 10.24L28.17 10.24L28.17 10.24Q28.36 9.85 28.59 9.52L28.59 9.52L28.59 9.52Q28.82 9.18 29.08 8.96L29.08 8.96L29.08 8.96Q28.84 9.12 28.56 9.21L28.56 9.21L28.56 9.21Q28.27 9.30 27.98 9.30L27.98 9.30L27.98 9.30Q27.77 9.30 27.61 9.26L27.61 9.26L27.61 9.26Q27.45 9.23 27.26 9.13L27.26 9.13L26.55 10.62L26.26 10.50L27.00 8.99L27.00 8.99Q26.88 8.91 26.75 8.78L26.75 8.78L26.75 8.78Q26.61 8.65 26.55 8.53L26.55 8.53L27.50 7.46L27.50 7.46Q27.56 7.65 27.67 7.84L27.67 7.84L27.67 7.84Q27.78 8.03 27.93 8.17L27.93 8.17L27.93 8.17Q28.08 8.32 28.26 8.42L28.26 8.42L28.26 8.42Q28.44 8.51 28.65 8.51L28.65 8.51L28.65 8.51Q29.01 8.51 29.35 8.38L29.35 8.38L29.35 8.38Q29.70 8.24 29.99 8.05L29.99 8.05L30.17 8.24L30.17 8.24Q29.91 8.48 29.65 8.77L29.65 8.77L29.65 8.77Q29.39 9.06 29.18 9.39L29.18 9.39L29.18 9.39Q28.96 9.71 28.83 10.08L28.83 10.08L28.83 10.08Q28.70 10.44 28.70 10.81L28.70 10.81L28.70 10.81Q28.70 11.02 28.76 11.28L28.76 11.28L28.76 11.28Q28.82 11.55 28.94 11.78L28.94 11.78L28.94 11.78Q29.07 12.02 29.25 12.18L29.25 12.18L29.25 12.18Q29.44 12.34 29.70 12.34L29.70 12.34L29.70 12.34Q29.87 12.34 30.04 12.27L30.04 12.27L30.04 12.27Q30.21 12.21 30.34 12.11L30.34 12.11ZM33.78 12.03L33.97 12.24L33.97 12.24Q33.81 12.57 33.61 12.75L33.61 12.75L33.61 12.75Q33.40 12.93 33.20 13.01L33.20 13.01L33.20 13.01Q32.98 13.10 32.74 13.12L32.74 13.12L32.74 13.12Q32.43 13.12 32.23 13.02L32.23 13.02L32.23 13.02Q32.04 12.93 31.93 12.77L31.93 12.77L31.93 12.77Q31.81 12.61 31.77 12.41L31.77 12.41L31.77 12.41Q31.73 12.22 31.73 12.01L31.73 12.01L31.73 8.43L31.00 8.43L31.29 7.75L31.73 7.75L31.73 5.33L32.98 4.89L32.98 7.75L34.28 7.75L34.00 8.43L32.98 8.43L32.98 12.04L32.98 12.04Q32.98 12.21 33.05 12.30L33.05 12.30L33.05 12.30Q33.13 12.40 33.24 12.40L33.24 12.40L33.24 12.40Q33.36 12.41 33.50 12.32L33.50 12.32L33.50 12.32Q33.65 12.23 33.78 12.03L33.78 12.03ZM37.18 13.19L37.18 13.19L37.18 13.19Q36.67 13.19 36.23 13.01L36.23 13.01L36.23 13.01Q35.79 12.83 35.47 12.51L35.47 12.51L35.47 12.51Q35.14 12.19 34.96 11.75L34.96 11.75L34.96 11.75Q34.77 11.32 34.77 10.81L34.77 10.81L34.77 10.81Q34.77 10.23 34.96 9.72L34.96 9.72L34.96 9.72Q35.15 9.21 35.49 8.80L35.49 8.80L35.49 8.80Q35.83 8.39 36.29 8.09L36.29 8.09L36.29 8.09Q36.75 7.79 37.29 7.62L37.29 7.62L37.49 7.85L37.49 7.85Q37.18 8.08 36.91 8.37L36.91 8.37L36.91 8.37Q36.65 8.66 36.45 9.00L36.45 9.00L36.45 9.00Q36.25 9.34 36.13 9.71L36.13 9.71L36.13 9.71Q36.02 10.08 36.02 10.47L36.02 10.47L36.02 10.47Q36.02 10.80 36.11 11.16L36.11 11.16L36.11 11.16Q36.21 11.53 36.40 11.83L36.40 11.83L36.40 11.83Q36.59 12.13 36.88 12.32L36.88 12.32L36.88 12.32Q37.17 12.52 37.56 12.52L37.56 12.52L37.56 12.52Q37.90 12.52 38.15 12.39L38.15 12.39L38.15 12.39Q38.40 12.27 38.56 12.06L38.56 12.06L38.56 12.06Q38.73 11.85 38.81 11.56L38.81 11.56L38.81 11.56Q38.89 11.28 38.89 10.96L38.89 10.96L38.89 10.96Q38.89 10.60 38.75 10.21L38.75 10.21L38.75 10.21Q38.60 9.82 38.35 9.50L38.35 9.50L38.35 9.50Q38.10 9.17 37.77 8.95L37.77 8.95L37.77 8.95Q37.43 8.73 37.05 8.70L37.05 8.70L37.05 8.70Q37.29 8.42 37.58 8.19L37.58 8.19L37.58 8.19Q37.86 7.96 38.16 7.75L38.16 7.75L38.16 7.75Q38.55 7.88 38.86 8.13L38.86 8.13L38.86 8.13Q39.16 8.38 39.37 8.71L39.37 8.71L39.37 8.71Q39.58 9.04 39.69 9.42L39.69 9.42L39.69 9.42Q39.80 9.81 39.80 10.21L39.80 10.21L39.80 10.21Q39.80 10.75 39.61 11.28L39.61 11.28L39.61 11.28Q39.42 11.81 39.08 12.24L39.08 12.24L39.08 12.24Q38.73 12.67 38.25 12.93L38.25 12.93L38.25 12.93Q37.77 13.19 37.18 13.19ZM50.45 4.61L50.45 4.61L49.30 6.00L49.30 6.00Q49.15 5.54 48.91 5.13L48.91 5.13L48.91 5.13Q48.67 4.72 48.34 4.42L48.34 4.42L48.34 4.42Q48.02 4.11 47.60 3.92L47.60 3.92L47.60 3.92Q47.18 3.74 46.67 3.74L46.67 3.74L46.67 3.74Q46.30 3.74 45.99 3.87L45.99 3.87L45.99 3.87Q45.67 4.01 45.44 4.24L45.44 4.24L45.44 4.24Q45.20 4.48 45.07 4.80L45.07 4.80L45.07 4.80Q44.93 5.12 44.93 5.49L44.93 5.49L44.93 5.49Q44.93 5.87 45.08 6.21L45.08 6.21L45.08 6.21Q45.22 6.54 45.46 6.81L45.46 6.81L45.46 6.81Q45.70 7.08 46.01 7.28L46.01 7.28L46.01 7.28Q46.32 7.48 46.66 7.59L46.66 7.59L46.66 7.59Q46.99 7.70 47.36 7.85L47.36 7.85L47.36 7.85Q47.73 7.99 48.08 8.18L48.08 8.18L48.08 8.18Q48.44 8.37 48.76 8.61L48.76 8.61L48.76 8.61Q49.08 8.85 49.33 9.14L49.33 9.14L49.33 9.14Q49.57 9.43 49.72 9.79L49.72 9.79L49.72 9.79Q49.86 10.15 49.86 10.58L49.86 10.58L49.86 10.58Q49.86 11.19 49.59 11.68L49.59 11.68L49.59 11.68Q49.32 12.17 48.88 12.50L48.88 12.50L48.88 12.50Q48.45 12.84 47.88 13.02L47.88 13.02L47.88 13.02Q47.32 13.19 46.74 13.19L46.74 13.19L46.74 13.19Q46.34 13.19 45.93 13.08L45.93 13.08L45.93 13.08Q45.53 12.96 45.15 12.76L45.15 12.76L45.15 12.76Q44.78 12.56 44.46 12.29L44.46 12.29L44.46 12.29Q44.13 12.02 43.89 11.72L43.89 11.72L45.00 10.45L45.00 10.45Q45.10 10.77 45.36 11.14L45.36 11.14L45.36 11.14Q45.62 11.51 45.96 11.83L45.96 11.83L45.96 11.83Q46.30 12.14 46.69 12.35L46.69 12.35L46.69 12.35Q47.09 12.56 47.46 12.56L47.46 12.56L47.46 12.56Q47.67 12.56 47.89 12.45L47.89 12.45L47.89 12.45Q48.12 12.34 48.31 12.16L48.31 12.16L48.31 12.16Q48.49 11.99 48.62 11.79L48.62 11.79L48.62 11.79Q48.74 11.58 48.74 11.38L48.74 11.38L48.74 11.38Q48.74 11.08 48.62 10.81L48.62 10.81L48.62 10.81Q48.49 10.54 48.29 10.30L48.29 10.30L48.29 10.30Q48.09 10.06 47.83 9.86L47.83 9.86L47.83 9.86Q47.56 9.66 47.28 9.50L47.28 9.50L47.28 9.50Q47.00 9.34 46.71 9.22L46.71 9.22L46.71 9.22Q46.43 9.10 46.19 9.03L46.19 9.03L46.19 9.03Q45.72 8.89 45.27 8.62L45.27 8.62L45.27 8.62Q44.82 8.35 44.47 7.98L44.47 7.98L44.47 7.98Q44.13 7.60 43.91 7.13L43.91 7.13L43.91 7.13Q43.70 6.67 43.70 6.13L43.70 6.13L43.70 6.13Q43.70 5.67 43.85 5.26L43.85 5.26L43.85 5.26Q43.99 4.85 44.24 4.50L44.24 4.50L44.24 4.50Q44.50 4.16 44.84 3.87L44.84 3.87L44.84 3.87Q45.18 3.59 45.58 3.39L45.58 3.39L45.58 3.39Q45.97 3.20 46.40 3.09L46.40 3.09L46.40 3.09Q46.83 2.99 47.27 2.99L47.27 2.99L47.27 2.99Q48.23 2.99 49.05 3.41L49.05 3.41L49.05 3.41Q49.87 3.84 50.45 4.61ZM55.63 11.48L55.84 11.70L55.84 11.70Q55.60 12.01 55.31 12.28L55.31 12.28L55.31 12.28Q55.03 12.54 54.70 12.74L54.70 12.74L54.70 12.74Q54.37 12.94 54.00 13.06L54.00 13.06L54.00 13.06Q53.63 13.17 53.23 13.17L53.23 13.17L53.23 13.17Q52.73 13.17 52.30 12.99L52.30 12.99L52.30 12.99Q51.88 12.81 51.57 12.49L51.57 12.49L51.57 12.49Q51.26 12.17 51.09 11.74L51.09 11.74L51.09 11.74Q50.92 11.31 50.92 10.81L50.92 10.81L50.92 10.81Q50.92 10.40 51.04 10.00L51.04 10.00L51.04 10.00Q51.15 9.60 51.37 9.26L51.37 9.26L51.37 9.26Q51.58 8.91 51.87 8.61L51.87 8.61L51.87 8.61Q52.16 8.31 52.51 8.10L52.51 8.10L52.51 8.10Q52.86 7.89 53.25 7.77L53.25 7.77L53.25 7.77Q53.63 7.65 54.04 7.65L54.04 7.65L54.04 7.65Q54.33 7.65 54.59 7.72L54.59 7.72L54.59 7.72Q54.84 7.79 55.04 7.93L55.04 7.93L55.04 7.93Q55.24 8.08 55.36 8.31L55.36 8.31L55.36 8.31Q55.47 8.54 55.47 8.85L55.47 8.85L55.47 8.85Q55.47 9.11 55.32 9.40L55.32 9.40L55.32 9.40Q55.17 9.69 54.92 9.97L54.92 9.97L54.92 9.97Q54.67 10.26 54.35 10.54L54.35 10.54L54.35 10.54Q54.04 10.81 53.71 11.05L53.71 11.05L53.71 11.05Q53.39 11.29 53.09 11.46L53.09 11.46L53.09 11.46Q52.79 11.64 52.56 11.74L52.56 11.74L52.56 11.74Q52.81 12.05 53.15 12.25L53.15 12.25L53.15 12.25Q53.48 12.45 53.86 12.45L53.86 12.45L53.86 12.45Q54.10 12.45 54.35 12.36L54.35 12.36L54.35 12.36Q54.59 12.26 54.82 12.12L54.82 12.12L54.82 12.12Q55.05 11.98 55.26 11.81L55.26 11.81L55.26 11.81Q55.47 11.63 55.63 11.48L55.63 11.48ZM54.19 9.11L54.19 9.11L54.19 9.11Q54.19 8.95 54.14 8.80L54.14 8.80L54.14 8.80Q54.09 8.66 53.99 8.56L53.99 8.56L53.99 8.56Q53.89 8.45 53.76 8.38L53.76 8.38L53.76 8.38Q53.63 8.32 53.46 8.32L53.46 8.32L53.46 8.32Q53.15 8.32 52.89 8.53L52.89 8.53L52.89 8.53Q52.63 8.75 52.44 9.06L52.44 9.06L52.44 9.06Q52.25 9.38 52.15 9.73L52.15 9.73L52.15 9.73Q52.04 10.08 52.04 10.35L52.04 10.35L52.04 10.35Q52.04 10.61 52.12 10.88L52.12 10.88L52.12 10.88Q52.21 11.16 52.35 11.41L52.35 11.41L52.35 11.41Q52.62 11.26 52.94 10.99L52.94 10.99L52.94 10.99Q53.27 10.73 53.54 10.41L53.54 10.41L53.54 10.41Q53.82 10.09 54.00 9.75L54.00 9.75L54.00 9.75Q54.19 9.41 54.19 9.11ZM61.97 15.05L62.15 15.25L62.15 15.25Q62.07 15.42 61.94 15.58L61.94 15.58L61.94 15.58Q61.82 15.74 61.66 15.87L61.66 15.87L61.66 15.87Q61.50 16.00 61.31 16.07L61.31 16.07L61.31 16.07Q61.13 16.15 60.92 16.15L60.92 16.15L60.92 16.15Q60.38 16.15 60.15 15.85L60.15 15.85L60.15 15.85Q59.91 15.54 59.91 15.04L59.91 15.04L59.91 11.87L59.91 11.87Q59.79 12.11 59.63 12.34L59.63 12.34L59.63 12.34Q59.48 12.57 59.28 12.76L59.28 12.76L59.28 12.76Q59.09 12.94 58.85 13.06L58.85 13.06L58.85 13.06Q58.61 13.17 58.32 13.17L58.32 13.17L58.32 13.17Q57.87 13.17 57.53 13.00L57.53 13.00L57.53 13.00Q57.19 12.83 56.96 12.54L56.96 12.54L56.96 12.54Q56.72 12.25 56.61 11.86L56.61 11.86L56.61 11.86Q56.49 11.47 56.49 11.03L56.49 11.03L56.49 11.03Q56.49 10.64 56.59 10.23L56.59 10.23L56.59 10.23Q56.68 9.82 56.86 9.45L56.86 9.45L56.86 9.45Q57.03 9.08 57.29 8.75L57.29 8.75L57.29 8.75Q57.54 8.42 57.86 8.18L57.86 8.18L57.86 8.18Q58.18 7.94 58.56 7.80L58.56 7.80L58.56 7.80Q58.95 7.66 59.38 7.66L59.38 7.66L59.38 7.66Q59.64 7.66 59.90 7.72L59.90 7.72L59.90 7.72Q60.16 7.79 60.39 7.91L60.39 7.91L60.39 7.91Q60.63 8.03 60.82 8.21L60.82 8.21L60.82 8.21Q61.02 8.39 61.14 8.64L61.14 8.64L60.12 9.07L60.12 9.07Q60.04 8.94 59.93 8.81L59.93 8.81L59.93 8.81Q59.83 8.67 59.70 8.57L59.70 8.57L59.70 8.57Q59.58 8.46 59.43 8.40L59.43 8.40L59.43 8.40Q59.28 8.33 59.12 8.33L59.12 8.33L59.12 8.33Q58.89 8.33 58.69 8.44L58.69 8.44L58.69 8.44Q58.49 8.54 58.32 8.72L58.32 8.72L58.32 8.72Q58.15 8.90 58.02 9.13L58.02 9.13L58.02 9.13Q57.89 9.36 57.80 9.60L57.80 9.60L57.80 9.60Q57.72 9.84 57.67 10.08L57.67 10.08L57.67 10.08Q57.63 10.32 57.63 10.51L57.63 10.51L57.63 10.51Q57.63 10.77 57.68 11.10L57.68 11.10L57.68 11.10Q57.73 11.42 57.86 11.71L57.86 11.71L57.86 11.71Q57.99 12.00 58.20 12.20L58.20 12.20L58.20 12.20Q58.41 12.39 58.73 12.39L58.73 12.39L58.73 12.39Q59.11 12.39 59.34 12.15L59.34 12.15L59.34 12.15Q59.58 11.92 59.70 11.57L59.70 11.57L59.70 11.57Q59.83 11.22 59.87 10.85L59.87 10.85L59.87 10.85Q59.91 10.47 59.91 10.18L59.91 10.18L59.91 9.69L61.15 9.26L61.15 15.07L61.15 15.07Q61.15 15.20 61.22 15.31L61.22 15.31L61.22 15.31Q61.29 15.42 61.43 15.42L61.43 15.42L61.43 15.42Q61.61 15.42 61.75 15.30L61.75 15.30L61.75 15.30Q61.89 15.18 61.97 15.05L61.97 15.05ZM67.91 12.03L68.10 12.24L68.10 12.24Q67.94 12.57 67.73 12.75L67.73 12.75L67.73 12.75Q67.52 12.93 67.33 13.01L67.33 13.01L67.33 13.01Q67.10 13.10 66.87 13.12L66.87 13.12L66.87 13.12Q66.56 13.12 66.37 13.02L66.37 13.02L66.37 13.02Q66.17 12.93 66.06 12.77L66.06 12.77L66.06 12.77Q65.94 12.61 65.90 12.41L65.90 12.41L65.90 12.41Q65.85 12.22 65.85 12.01L65.85 12.01L65.85 9.83L65.85 9.83Q65.80 10.08 65.71 10.42L65.71 10.42L65.71 10.42Q65.63 10.76 65.50 11.13L65.50 11.13L65.50 11.13Q65.38 11.50 65.21 11.87L65.21 11.87L65.21 11.87Q65.05 12.24 64.84 12.52L64.84 12.52L64.84 12.52Q64.62 12.81 64.35 12.99L64.35 12.99L64.35 12.99Q64.08 13.17 63.75 13.17L63.75 13.17L63.75 13.17Q63.46 13.17 63.30 13.07L63.30 13.07L63.30 13.07Q63.14 12.96 63.06 12.77L63.06 12.77L63.06 12.77Q62.99 12.57 62.97 12.30L62.97 12.30L62.97 12.30Q62.95 12.03 62.95 11.70L62.95 11.70L62.95 8.74L62.95 8.74Q62.95 8.57 62.88 8.48L62.88 8.48L62.88 8.48Q62.80 8.38 62.68 8.38L62.68 8.38L62.68 8.38Q62.56 8.37 62.42 8.46L62.42 8.46L62.42 8.46Q62.28 8.55 62.14 8.75L62.14 8.75L61.95 8.54L61.95 8.54Q62.11 8.22 62.32 8.04L62.32 8.04L62.32 8.04Q62.52 7.85 62.72 7.77L62.72 7.77L62.72 7.77Q62.95 7.68 63.18 7.66L63.18 7.66L63.18 7.66Q63.49 7.66 63.69 7.76L63.69 7.76L63.69 7.76Q63.88 7.85 63.99 8.01L63.99 8.01L63.99 8.01Q64.11 8.16 64.15 8.36L64.15 8.36L64.15 8.36Q64.20 8.56 64.20 8.76L64.20 8.76L64.20 11.59L64.20 11.59Q64.20 11.86 64.29 11.94L64.29 11.94L64.29 11.94Q64.39 12.02 64.54 11.92L64.54 11.92L64.54 11.92Q64.70 11.81 64.88 11.53L64.88 11.53L64.88 11.53Q65.07 11.25 65.26 10.78L65.26 10.78L65.26 10.78Q65.39 10.34 65.50 9.86L65.50 9.86L65.50 9.86Q65.60 9.46 65.70 8.98L65.70 8.98L65.70 8.98Q65.80 8.49 65.85 8.04L65.85 8.04L67.11 7.60L67.11 12.04L67.11 12.04Q67.11 12.21 67.18 12.30L67.18 12.30L67.18 12.30Q67.26 12.40 67.38 12.40L67.38 12.40L67.38 12.40Q67.49 12.41 67.63 12.32L67.63 12.32L67.63 12.32Q67.77 12.23 67.91 12.03L67.91 12.03ZM73.32 11.48L73.52 11.70L73.52 11.70Q73.28 12.01 73.00 12.28L73.00 12.28L73.00 12.28Q72.71 12.54 72.38 12.74L72.38 12.74L72.38 12.74Q72.05 12.94 71.68 13.06L71.68 13.06L71.68 13.06Q71.31 13.17 70.92 13.17L70.92 13.17L70.92 13.17Q70.41 13.17 69.99 12.99L69.99 12.99L69.99 12.99Q69.56 12.81 69.25 12.49L69.25 12.49L69.25 12.49Q68.95 12.17 68.78 11.74L68.78 11.74L68.78 11.74Q68.61 11.31 68.61 10.81L68.61 10.81L68.61 10.81Q68.61 10.40 68.72 10.00L68.72 10.00L68.72 10.00Q68.84 9.60 69.05 9.26L69.05 9.26L69.05 9.26Q69.26 8.91 69.55 8.61L69.55 8.61L69.55 8.61Q69.84 8.31 70.19 8.10L70.19 8.10L70.19 8.10Q70.54 7.89 70.93 7.77L70.93 7.77L70.93 7.77Q71.32 7.65 71.73 7.65L71.73 7.65L71.73 7.65Q72.02 7.65 72.27 7.72L72.27 7.72L72.27 7.72Q72.53 7.79 72.73 7.93L72.73 7.93L72.73 7.93Q72.93 8.08 73.04 8.31L73.04 8.31L73.04 8.31Q73.16 8.54 73.16 8.85L73.16 8.85L73.16 8.85Q73.16 9.11 73.00 9.40L73.00 9.40L73.00 9.40Q72.85 9.69 72.60 9.97L72.60 9.97L72.60 9.97Q72.35 10.26 72.04 10.54L72.04 10.54L72.04 10.54Q71.72 10.81 71.40 11.05L71.40 11.05L71.40 11.05Q71.07 11.29 70.77 11.46L70.77 11.46L70.77 11.46Q70.47 11.64 70.25 11.74L70.25 11.74L70.25 11.74Q70.50 12.05 70.83 12.25L70.83 12.25L70.83 12.25Q71.17 12.45 71.54 12.45L71.54 12.45L71.54 12.45Q71.78 12.45 72.03 12.36L72.03 12.36L72.03 12.36Q72.28 12.26 72.51 12.12L72.51 12.12L72.51 12.12Q72.73 11.98 72.94 11.81L72.94 11.81L72.94 11.81Q73.15 11.63 73.32 11.48L73.32 11.48ZM71.87 9.11L71.87 9.11L71.87 9.11Q71.87 8.95 71.82 8.80L71.82 8.80L71.82 8.80Q71.77 8.66 71.67 8.56L71.67 8.56L71.67 8.56Q71.58 8.45 71.45 8.38L71.45 8.38L71.45 8.38Q71.31 8.32 71.14 8.32L71.14 8.32L71.14 8.32Q70.83 8.32 70.57 8.53L70.57 8.53L70.57 8.53Q70.31 8.75 70.13 9.06L70.13 9.06L70.13 9.06Q69.94 9.38 69.83 9.73L69.83 9.73L69.83 9.73Q69.73 10.08 69.73 10.35L69.73 10.35L69.73 10.35Q69.73 10.61 69.81 10.88L69.81 10.88L69.81 10.88Q69.89 11.16 70.03 11.41L70.03 11.41L70.03 11.41Q70.31 11.26 70.63 10.99L70.63 10.99L70.63 10.99Q70.95 10.73 71.23 10.41L71.23 10.41L71.23 10.41Q71.50 10.09 71.69 9.75L71.69 9.75L71.69 9.75Q71.87 9.41 71.87 9.11ZM74.44 4.61L75.89 4.12L75.52 6.61L74.85 6.82L74.44 4.61ZM76.64 12.03L76.83 12.24L76.83 12.24Q76.67 12.57 76.46 12.75L76.46 12.75L76.46 12.75Q76.25 12.93 76.06 13.01L76.06 13.01L76.06 13.01Q75.84 13.10 75.61 13.12L75.61 13.12L75.61 13.12Q75.30 13.12 75.11 13.02L75.11 13.02L75.11 13.02Q74.91 12.93 74.79 12.77L74.79 12.77L74.79 12.77Q74.68 12.61 74.63 12.41L74.63 12.41L74.63 12.41Q74.59 12.22 74.59 12.01L74.59 12.01L74.59 8.18L75.84 7.75L75.84 12.04L75.84 12.04Q75.84 12.21 75.92 12.30L75.92 12.30L75.92 12.30Q76.00 12.40 76.11 12.40L76.11 12.40L76.11 12.40Q76.23 12.41 76.37 12.32L76.37 12.32L76.37 12.32Q76.51 12.23 76.64 12.03L76.64 12.03ZM81.22 12.11L81.39 12.29L81.39 12.29Q81.27 12.48 81.09 12.64L81.09 12.64L81.09 12.64Q80.91 12.79 80.70 12.90L80.70 12.90L80.70 12.90Q80.49 13.01 80.25 13.07L80.25 13.07L80.25 13.07Q80.02 13.13 79.80 13.13L79.80 13.13L79.80 13.13Q79.50 13.13 79.28 13.02L79.28 13.02L79.28 13.02Q79.06 12.91 78.93 12.72L78.93 12.72L78.93 12.72Q78.79 12.54 78.73 12.29L78.73 12.29L78.73 12.29Q78.66 12.04 78.66 11.78L78.66 11.78L78.66 11.78Q78.66 11.43 78.77 11.03L78.77 11.03L78.77 11.03Q78.87 10.63 79.05 10.24L79.05 10.24L79.05 10.24Q79.24 9.85 79.47 9.52L79.47 9.52L79.47 9.52Q79.70 9.18 79.96 8.96L79.96 8.96L79.96 8.96Q79.72 9.12 79.44 9.21L79.44 9.21L79.44 9.21Q79.15 9.30 78.86 9.30L78.86 9.30L78.86 9.30Q78.65 9.30 78.49 9.26L78.49 9.26L78.49 9.26Q78.33 9.23 78.14 9.13L78.14 9.13L77.43 10.62L77.14 10.50L77.88 8.99L77.88 8.99Q77.76 8.91 77.63 8.78L77.63 8.78L77.63 8.78Q77.49 8.65 77.43 8.53L77.43 8.53L78.38 7.46L78.38 7.46Q78.44 7.65 78.55 7.84L78.55 7.84L78.55 7.84Q78.66 8.03 78.81 8.17L78.81 8.17L78.81 8.17Q78.96 8.32 79.14 8.42L79.14 8.42L79.14 8.42Q79.32 8.51 79.53 8.51L79.53 8.51L79.53 8.51Q79.89 8.51 80.23 8.38L80.23 8.38L80.23 8.38Q80.58 8.24 80.87 8.05L80.87 8.05L81.05 8.24L81.05 8.24Q80.79 8.48 80.53 8.77L80.53 8.77L80.53 8.77Q80.27 9.06 80.06 9.39L80.06 9.39L80.06 9.39Q79.84 9.71 79.71 10.08L79.71 10.08L79.71 10.08Q79.58 10.44 79.58 10.81L79.58 10.81L79.58 10.81Q79.58 11.02 79.64 11.28L79.64 11.28L79.64 11.28Q79.70 11.55 79.82 11.78L79.82 11.78L79.82 11.78Q79.95 12.02 80.13 12.18L80.13 12.18L80.13 12.18Q80.32 12.34 80.58 12.34L80.58 12.34L80.58 12.34Q80.75 12.34 80.92 12.27L80.92 12.27L80.92 12.27Q81.09 12.21 81.22 12.11L81.22 12.11ZM87.53 12.01L87.72 12.22L87.72 12.22Q87.64 12.40 87.51 12.56L87.51 12.56L87.51 12.56Q87.39 12.71 87.23 12.84L87.23 12.84L87.23 12.84Q87.07 12.96 86.88 13.03L86.88 13.03L86.88 13.03Q86.69 13.10 86.49 13.10L86.49 13.10L86.49 13.10Q85.95 13.10 85.71 12.81L85.71 12.81L85.71 12.81Q85.48 12.51 85.48 12.00L85.48 12.00L85.48 11.87L85.48 11.87Q85.35 12.11 85.20 12.34L85.20 12.34L85.20 12.34Q85.05 12.57 84.85 12.76L84.85 12.76L84.85 12.76Q84.66 12.94 84.42 13.06L84.42 13.06L84.42 13.06Q84.18 13.17 83.88 13.17L83.88 13.17L83.88 13.17Q83.44 13.17 83.10 13.00L83.10 13.00L83.10 13.00Q82.76 12.83 82.52 12.54L82.52 12.54L82.52 12.54Q82.29 12.25 82.17 11.86L82.17 11.86L82.17 11.86Q82.06 11.47 82.06 11.03L82.06 11.03L82.06 11.03Q82.06 10.44 82.27 9.85L82.27 9.85L82.27 9.85Q82.48 9.26 82.85 8.79L82.85 8.79L82.85 8.79Q83.23 8.33 83.76 8.04L83.76 8.04L83.76 8.04Q84.29 7.75 84.94 7.75L84.94 7.75L84.94 7.75Q85.20 7.75 85.46 7.79L85.46 7.79L85.46 7.79Q85.72 7.84 85.96 7.95L85.96 7.95L85.96 7.95Q86.19 8.05 86.39 8.22L86.39 8.22L86.39 8.22Q86.58 8.39 86.71 8.64L86.71 8.64L85.69 9.07L85.69 9.07Q85.61 8.94 85.50 8.82L85.50 8.82L85.50 8.82Q85.39 8.70 85.27 8.61L85.27 8.61L85.27 8.61Q85.14 8.52 85.00 8.47L85.00 8.47L85.00 8.47Q84.85 8.42 84.70 8.42L84.70 8.42L84.70 8.42Q84.34 8.42 84.06 8.63L84.06 8.63L84.06 8.63Q83.79 8.85 83.59 9.17L83.59 9.17L83.59 9.17Q83.40 9.50 83.30 9.86L83.30 9.86L83.30 9.86Q83.19 10.22 83.19 10.51L83.19 10.51L83.19 10.51Q83.19 10.77 83.24 11.10L83.24 11.10L83.24 11.10Q83.30 11.42 83.43 11.71L83.43 11.71L83.43 11.71Q83.56 12.00 83.77 12.20L83.77 12.20L83.77 12.20Q83.98 12.39 84.30 12.39L84.30 12.39L84.30 12.39Q84.55 12.39 84.74 12.28L84.74 12.28L84.74 12.28Q84.92 12.17 85.05 11.99L85.05 11.99L85.05 11.99Q85.18 11.81 85.27 11.57L85.27 11.57L85.27 11.57Q85.35 11.33 85.40 11.09L85.40 11.09L85.40 11.09Q85.44 10.84 85.46 10.60L85.46 10.60L85.46 10.60Q85.48 10.36 85.48 10.17L85.48 10.17L85.48 9.69L86.72 9.26L86.72 12.03L86.72 12.03Q86.72 12.17 86.79 12.28L86.79 12.28L86.79 12.28Q86.86 12.39 87.00 12.39L87.00 12.39L87.00 12.39Q87.17 12.39 87.31 12.27L87.31 12.27L87.31 12.27Q87.45 12.14 87.53 12.01L87.53 12.01Z"></path></g><!----><g data-v-d3f97b9e="" id="ae353bb3-667a-494a-a6ff-f7525b79bf3b" transform="matrix(1,0,0,1,0,1)" stroke="none" fill="white"><path d="M89.209.791A2.715 2.715 0 0 0 87.3 0H2.7C1.988 0 1.293.288.79.791A2.717 2.717 0 0 0 0 2.7v84.6A2.706 2.706 0 0 0 2.7 90h84.6c.711 0 1.407-.288 1.909-.792A2.717 2.717 0 0 0 90 87.3V2.7c0-.71-.289-1.405-.791-1.909zM84.6 45.02h-9.925a11.695 11.695 0 0 1 3.424 8.279c0 6.479-5.251 11.729-11.729 11.729s-11.73-5.251-11.73-11.73c0-3.23 1.31-6.157 3.427-8.278H44.979v-.002h.045V31.931a11.686 11.686 0 0 0 8.28 3.425c6.479 0 11.728-5.251 11.728-11.729 0-6.479-5.249-11.73-11.728-11.73-3.232 0-6.159 1.31-8.28 3.424V5.398h39.574L84.6 45.02zm-79.202-.038h9.928a11.695 11.695 0 0 1-3.424-8.28c0-6.479 5.251-11.728 11.73-11.728 6.478 0 11.729 5.25 11.729 11.728 0 3.232-1.309 6.159-3.426 8.28h13.087v.002h-.045v13.087a11.688 11.688 0 0 0-8.28-3.425c-6.479 0-11.728 5.251-11.728 11.729 0 6.479 5.249 11.729 11.728 11.729 3.232 0 6.159-1.311 8.28-3.425v9.92H5.398V44.982z"></path></g><!----></svg>