<svg data-v-d3f97b9e="" xmlns="http://www.w3.org/2000/svg" viewBox="0 0 60 60"><!----><!----><!----><!----><g data-v-d3f97b9e="" id="c956c291-b96e-40dc-9241-d2d6ac23b68a" transform="matrix(0.6666666666666666,0,0,0.6666666666666666,0,-5.394220181642595e-8)" stroke="none" fill="black"><path d="M89.209.791A2.715 2.715 0 0 0 87.3 0H2.7C1.988 0 1.293.288.79.791A2.717 2.717 0 0 0 0 2.7v84.6A2.706 2.706 0 0 0 2.7 90h84.6c.711 0 1.407-.288 1.909-.792A2.717 2.717 0 0 0 90 87.3V2.7c0-.71-.289-1.405-.791-1.909zM84.6 45.02h-9.925a11.695 11.695 0 0 1 3.424 8.279c0 6.479-5.251 11.729-11.729 11.729s-11.73-5.251-11.73-11.73c0-3.23 1.31-6.157 3.427-8.278H44.979v-.002h.045V31.931a11.686 11.686 0 0 0 8.28 3.425c6.479 0 11.728-5.251 11.728-11.729 0-6.479-5.249-11.73-11.728-11.73-3.232 0-6.159 1.31-8.28 3.424V5.398h39.574L84.6 45.02zm-79.202-.038h9.928a11.695 11.695 0 0 1-3.424-8.28c0-6.479 5.251-11.728 11.73-11.728 6.478 0 11.729 5.25 11.729 11.728 0 3.232-1.309 6.159-3.426 8.28h13.087v.002h-.045v13.087a11.688 11.688 0 0 0-8.28-3.425c-6.479 0-11.728 5.251-11.728 11.729 0 6.479 5.249 11.729 11.728 11.729 3.232 0 6.159-1.311 8.28-3.425v9.92H5.398V44.982z"></path></g><!----></svg>